<?xml version="1.0" encoding="utf-8" ?>
<svg baseProfile="full" height="100%" version="1.1" viewBox="0,0,1000,180" width="100%" xmlns="http://www.w3.org/2000/svg" xmlns:ev="http://www.w3.org/2001/xml-events" xmlns:xlink="http://www.w3.org/1999/xlink"><defs /><rect fill="white" height="180" width="1000" x="0" y="0" /><path d="M0,0 M427.6944580078125,59.79011535644531 L427.92236328125,59.287864685058594 L428.3341064453125,58.321693420410156 L428.9038391113281,56.88327407836914 L429.5467529296875,55.12223815917969 L430.2063293457031,53.16917419433594 L430.83026123046875,51.201236724853516 L431.37664794921875,49.390079498291016 L431.8135070800781,47.90229415893555 L432.11676025390625,46.85239791870117 L432.3060302734375,46.31416702270508 L432.4175109863281,46.345123291015625 L432.501953125,47.01926803588867 L432.5980529785156,48.380863189697266 L432.7303771972656,50.39909362792969 L432.8972473144531,52.92130661010742 L433.0977783203125,55.71158218383789 L433.3270263671875,58.49079895019531 L433.591796875,61.03154373168945 L433.89300537109375,63.12665939331055 L434.2112731933594,64.49850463867188 L434.50482177734375,64.97181701660156 L434.7275085449219,64.5354232788086 L434.8546447753906,63.686851501464844 L434.9034729003906,62.91080093383789 M429.04736328125,55.91332244873047 L429.37811279296875,56.180755615234375 L430.091796875,56.60508728027344 L431.2245788574219,57.089263916015625 L432.7310485839844,57.40525436401367 L434.48876953125,57.4244270324707 L436.3192138671875,57.1014404296875 L437.80206298828125,56.658321380615234 L438.73248291015625,56.28586196899414 M441.57891845703125,53.86965560913086 L441.78912353515625,53.939430236816406 L442.0641784667969,54.24079895019531 L442.3030700683594,54.911277770996094 L442.389404296875,56.007144927978516 L442.350341796875,57.42538070678711 L442.2491455078125,58.94669723510742 L442.1949157714844,60.32120895385742 L442.2579040527344,61.318199157714844 L442.48504638671875,61.77157974243164 L442.9097900390625,61.613895416259766 L443.5760192871094,60.8735237121582 L444.46954345703125,59.69116973876953 L445.531494140625,58.3119010925293 L446.63995361328125,56.99795913696289 L447.6651916503906,55.966007232666016 L448.5179748535156,55.3659553527832 L449.1715087890625,55.26752853393555 L449.63421630859375,55.695125579833984 L449.93572998046875,56.630340576171875 L450.11639404296875,57.96759796142578 L450.25921630859375,59.50749969482422 L450.4925537109375,61.01079177856445 L450.9833984375,62.10710525512695 L451.80877685546875,62.52632141113281 L452.9259948730469,62.17106246948242 L453.96807861328125,61.44595718383789 L454.68243408203125,60.755226135253906 M458.39190673828125,46.192405700683594 L458.3792724609375,46.59886932373047 L458.3335266113281,47.513423919677734 L458.2322998046875,49.0185546875 L458.0935363769531,51.03388595581055 L457.9700927734375,53.394683837890625 L457.9031677246094,55.861488342285156 L457.93035888671875,58.20441436767578 L458.083984375,60.177669525146484 L458.334228515625,61.57310104370117 L458.6504211425781,62.317176818847656 L458.93408203125,62.55689239501953 L459.1180419921875,62.5203971862793 M454.52056884765625,53.884803771972656 L454.90618896484375,53.84329605102539 L455.7899169921875,53.79660415649414 L457.24066162109375,53.77992248535156 L459.1397399902344,53.83015441894531 L461.26580810546875,53.9476318359375 L463.37640380859375,54.090572357177734 L465.29156494140625,54.212677001953125 L466.87408447265625,54.26573944091797 L468.0058288574219,54.24716567993164 L468.5978698730469,54.19941711425781 L468.58001708984375,54.20411682128906 L467.9991455078125,54.3449592590332 L467.0185546875,54.71106719970703 L465.8609619140625,55.34563064575195 L464.79425048828125,56.24790573120117 L464.0475769042969,57.36227035522461 L463.7576904296875,58.58549880981445 L463.9953918457031,59.754364013671875 L464.7423400878906,60.70713424682617 L465.90106201171875,61.2771110534668 L467.3218994140625,61.34508514404297 L468.8123779296875,60.87339782714844 L470.1600341796875,59.92364501953125 L471.17108154296875,58.630184173583984 L471.71063232421875,57.21228790283203 L471.72161865234375,55.87030029296875 L471.23675537109375,54.77637481689453 L470.364990234375,54.0837516784668 L469.2928466796875,53.85348892211914 L468.2233581542969,54.05059814453125 L467.4141845703125,54.43361282348633 L466.95404052734375,54.77817153930664 M476.2707824707031,52.93864440917969 L476.54339599609375,53.06764221191406 L476.8726806640625,53.46046829223633 L477.1151123046875,54.221290588378906 L477.1168518066406,55.35185623168945 L476.9278869628906,56.73912048339844 L476.6717224121094,58.19857406616211 L476.5155029296875,59.54833984375 L476.5751037597656,60.61307907104492 L476.9235534667969,61.23020935058594 L477.58441162109375,61.278831481933594 L478.562255859375,60.72938537597656 L479.8119812011719,59.677589416503906 L481.2127380371094,58.365352630615234 L482.6161804199219,57.08354949951172 L483.8736877441406,56.07386779785156 L484.8709716796875,55.515289306640625 L485.5608825683594,55.505859375 L485.9722595214844,56.08231735229492 L486.1293640136719,57.21630096435547 L486.15826416015625,58.80170440673828 L486.20947265625,60.58366012573242 L486.405029296875,62.29404830932617 L486.673583984375,63.56541442871094 L486.9287109375,64.28164672851562 M501.90142822265625,54.11210250854492 L501.81964111328125,54.258544921875 L501.6591796875,54.7066764831543 L501.41424560546875,55.58858108520508 L501.14483642578125,56.92174530029297 L500.9424743652344,58.57304382324219 L500.90924072265625,60.322757720947266 L501.0794982910156,61.91776657104492 L501.4761962890625,63.14448165893555 L502.06097412109375,63.84307861328125 L502.82305908203125,63.924564361572266 L503.75604248046875,63.37644577026367 L504.82659912109375,62.28226852416992 L505.9165954589844,60.847015380859375 L506.8975830078125,59.34782791137695 L507.627685546875,58.04304885864258 L508.0596618652344,57.1262321472168 L508.21356201171875,56.70176696777344 L508.1990966796875,56.79666519165039 L508.12506103515625,57.42653274536133 L508.10052490234375,58.5286750793457 L508.19525146484375,59.94613265991211 L508.45440673828125,61.4435920715332 L508.8672790527344,62.77103042602539 L509.4495849609375,63.7027587890625 L510.1858215332031,64.10254669189453 L511.07537841796875,63.88831329345703 L512.0977783203125,63.05647659301758 L513.1708984375,61.675384521484375 L514.1654052734375,59.92536926269531 L514.9658203125,58.034732818603516 L515.46923828125,56.227745056152344 L515.6903686523438,54.69148635864258 L515.7171630859375,53.540550231933594 L515.6586303710938,52.791603088378906 L515.6007690429688,52.403873443603516 L515.5804443359375,52.26640319824219 M523.906005859375,55.174522399902344 L523.7146606445312,54.8426513671875 L523.250732421875,54.43817901611328 L522.4132690429688,54.176753997802734 L521.2142333984375,54.33193588256836 L519.7667846679688,54.990848541259766 L518.2939453125,56.100730895996094 L517.0560302734375,57.49810791015625 L516.2582397460938,58.96989440917969 L516.0089111328125,60.29802322387695 L516.3277587890625,61.2896842956543 L517.149169921875,61.79325866699219 L518.3899536132812,61.71766662597656 L519.92138671875,61.04756164550781 L521.581787109375,59.856475830078125 L523.1717529296875,58.341102600097656 L524.5108032226562,56.7758903503418 L525.4415283203125,55.41635513305664 L525.927978515625,54.476600646972656 L526.00830078125,54.077186584472656 L525.7890014648438,54.25118637084961 L525.3690185546875,54.99891662597656 L524.880859375,56.25801086425781 L524.4307250976562,57.86088562011719 L524.21533203125,59.5561408996582 L524.3738403320312,61.05408477783203 L524.9581298828125,62.118534088134766 L525.66455078125,62.69720458984375 L526.2378540039062,62.902061462402344 M536.9461059570312,52.6933708190918 L536.6213989257812,52.49491500854492 L535.9336547851562,52.33137512207031 L534.8515625,52.37340545654297 L533.5167236328125,52.772186279296875 L532.154052734375,53.48397445678711 L531.0674438476562,54.405052185058594 L530.4953002929688,55.4075813293457 L530.5686645507812,56.40925979614258 L531.2752685546875,57.37058639526367 L532.4797973632812,58.259063720703125 L533.9419555664062,59.038326263427734 L535.3897705078125,59.70429611206055 L536.5361938476562,60.26774215698242 L537.142333984375,60.74675369262695 L537.0604858398438,61.17135238647461 L536.2836303710938,61.56275177001953 L534.9009399414062,61.913429260253906 L533.1265869140625,62.21546173095703 L531.242431640625,62.46483612060547 L529.619873046875,62.60247802734375 L528.5577392578125,62.57109832763672 L528.2317504882812,62.346763610839844 L528.392333984375,62.048011779785156 L528.7205810546875,61.789249420166016 M549.5728759765625,45.0 L549.6503295898438,45.23767852783203 L549.7401733398438,45.83202362060547 L549.7789306640625,46.89797592163086 L549.7139892578125,48.43613815307617 L549.5534057617188,50.359642028808594 L549.3431396484375,52.53010559082031 L549.129638671875,54.7537727355957 L548.9505615234375,56.80854415893555 L548.8219604492188,58.484901428222656 L548.7804565429688,59.60482406616211 L548.8851318359375,60.05625534057617 L549.214111328125,59.846561431884766 L549.8082885742188,59.05284881591797 L550.6593627929688,57.84077835083008 L551.6925659179688,56.47099685668945 L552.7855834960938,55.201210021972656 L553.8223266601562,54.22751235961914 L554.734619140625,53.69025421142578 L555.48583984375,53.62324905395508 L556.06787109375,54.044342041015625 L556.47998046875,54.96163558959961 L556.7315673828125,56.32072830200195 L556.8688354492188,57.97808074951172 L556.9825439453125,59.72501754760742 L557.2045288085938,61.28353500366211 L557.6715698242188,62.44205093383789 L558.4737548828125,63.04479217529297 L559.63037109375,63.01660919189453 L561.0584716796875,62.325984954833984 L562.5878295898438,61.02309799194336 L564.012939453125,59.23541259765625 L565.1453857421875,57.21138381958008 L565.8310546875,55.2322883605957 L566.00830078125,53.57859802246094 L565.6730346679688,52.433433532714844 L564.8923950195312,51.92052459716797 L563.8038330078125,52.0903434753418 L562.6168212890625,52.928001403808594 L561.5660400390625,54.31341552734375 L560.9047241210938,56.039981842041016 L560.8172607421875,57.830169677734375 L561.3877563476562,59.42096710205078 L562.5853881835938,60.591861724853516 L564.27685546875,61.19649124145508 L566.2531127929688,61.17361831665039 L568.2896118164062,60.55213928222656 L570.150634765625,59.485198974609375 L571.6453857421875,58.22064208984375 L572.673583984375,57.02439498901367 L573.2235107421875,56.12783432006836 L573.367919921875,55.70058822631836 L573.2372436523438,55.8004150390625 L572.9365234375,56.440284729003906 L572.5599975585938,57.52290725708008 L572.2090454101562,58.82228469848633 L571.94775390625,60.07891082763672 L571.8191528320312,61.05738830566406 L571.8330078125,61.56297302246094 L571.9581298828125,61.51649475097656 L572.1597290039062,60.903053283691406 L572.42041015625,59.795989990234375 L572.7097778320312,58.39313888549805 L572.9996948242188,56.9360466003418 L573.2872924804688,55.618865966796875 L573.6195068359375,54.55049133300781 L574.0855102539062,53.768577575683594 L574.7770385742188,53.28662109375 L575.7481689453125,53.105873107910156 L576.9869995117188,53.20804977416992 L578.4429321289062,53.51548767089844 L580.048095703125,53.902008056640625 L581.7188720703125,54.242671966552734 L583.3543701171875,54.41804504394531 L584.8408813476562,54.33612060546875 L586.0725708007812,53.973228454589844 L586.9586181640625,53.36701202392578 L587.43310546875,52.62375259399414 L587.4385986328125,51.910152435302734 L586.9575805664062,51.40658187866211 L586.0230712890625,51.26250457763672 L584.7609252929688,51.580081939697266 L583.3970947265625,52.38505172729492 L582.21728515625,53.6190185546875 L581.4935302734375,55.153987884521484 L581.4603271484375,56.81232452392578 L582.256103515625,58.38309860229492 L583.8759765625,59.683372497558594 L586.251953125,60.55131530761719 L589.1094360351562,60.92750549316406 L592.0573120117188,60.85618209838867 L594.3922729492188,60.57881164550781 L595.8014526367188,60.30358123779297 " fill="none" stroke="black" stroke-linecap="round" stroke-width="2" /><path d="M0,0 M363.0375061035156,110.69697570800781 L363.00201416015625,110.7752685546875 L362.9425048828125,111.1065902709961 L362.88360595703125,111.86477661132812 L362.8515319824219,113.1384048461914 L362.8448181152344,114.88858795166016 L362.85675048828125,117.03508758544922 L362.8568420410156,119.46953582763672 L362.828125,122.03704833984375 L362.8014221191406,124.57179260253906 L362.8158874511719,126.85076141357422 L362.8843078613281,128.68914794921875 L362.99517822265625,129.84005737304688 L363.10125732421875,130.17970275878906 L363.1556091308594,129.7037353515625 L363.16229248046875,128.88595581054688 L363.1465759277344,128.1420440673828 M355.5999450683594,107.77001190185547 L355.6999206542969,107.77265930175781 L356.11688232421875,107.80326843261719 L357.0356750488281,107.85787963867188 L358.54827880859375,107.90602111816406 L360.5840148925781,107.90251922607422 L362.9693908691406,107.82173156738281 L365.48089599609375,107.67865753173828 L367.9614562988281,107.48978424072266 L370.2462158203125,107.26786041259766 L372.2178955078125,107.01829528808594 L373.6235046386719,106.80020141601562 L374.415771484375,106.64976501464844 M374.62530517578125,106.62727355957031 L374.70489501953125,107.13184356689453 L374.8274841308594,108.08702087402344 L374.9513854980469,109.50584411621094 L375.0173034667969,111.28618621826172 L375.0008239746094,113.3822250366211 L374.890869140625,115.69327545166016 L374.7361755371094,118.11329650878906 L374.6026306152344,120.45149993896484 L374.5351257324219,122.49885559082031 L374.55682373046875,124.08997344970703 L374.6739196777344,125.08137512207031 L374.87921142578125,125.37812042236328 L375.2110290527344,124.96746826171875 L375.7360534667969,123.91431427001953 L376.49798583984375,122.40387725830078 L377.4817199707031,120.71580505371094 L378.6252136230469,119.12983703613281 L379.8114013671875,117.86531829833984 L380.94573974609375,117.06453704833984 L381.95526123046875,116.81163024902344 L382.8072509765625,117.15074920654297 L383.4696350097656,118.08041381835938 L383.9483642578125,119.53092193603516 L384.2699279785156,121.32572937011719 L384.52691650390625,123.22944641113281 L384.8003845214844,124.97659301757812 L385.2104187011719,126.33026123046875 L385.8183898925781,127.10739135742188 L386.6656799316406,127.21179962158203 L387.75030517578125,126.62625122070312 L389.02996826171875,125.43389892578125 L390.38189697265625,123.82891845703125 L391.66351318359375,122.11975860595703 L392.7001647949219,120.58477783203125 L393.39544677734375,119.45197296142578 L393.7381591796875,118.84660339355469 L393.8125915527344,118.7950668334961 L393.74676513671875,119.29035949707031 L393.65496826171875,120.32450866699219 L393.6137390136719,121.75973510742188 L393.68896484375,123.38469696044922 L393.9217224121094,124.92353820800781 L394.3688049316406,126.11528015136719 L395.0870361328125,126.68891143798828 L396.0509033203125,126.5567398071289 L397.16583251953125,125.7664566040039 L398.1237487792969,124.79425048828125 L398.7393798828125,124.0208740234375 M396.2247619628906,113.3985595703125 L396.12408447265625,113.43310546875 L396.0145263671875,113.47997283935547 L395.9305114746094,113.52447509765625 M404.8174133300781,116.72594451904297 L404.5109558105469,116.72207641601562 L403.88800048828125,116.7821273803711 L402.9823913574219,116.95925903320312 L401.9852600097656,117.29536437988281 L401.1426086425781,117.77809143066406 L400.70611572265625,118.39982604980469 L400.822265625,119.1222152709961 L401.5330810546875,119.90570068359375 L402.7816162109375,120.7053451538086 L404.3675231933594,121.4778823852539 L406.0117492675781,122.19218444824219 L407.41680908203125,122.8394775390625 L408.31658935546875,123.42953491210938 L408.54351806640625,123.97746276855469 L408.08026123046875,124.49528503417969 L406.98065185546875,124.96894073486328 L405.45147705078125,125.37710571289062 L403.782470703125,125.69395446777344 L402.3795471191406,125.89041900634766 L401.5690612792969,125.94427490234375 L401.5023193359375,125.84651184082031 L401.86102294921875,125.68099975585938 L402.3060302734375,125.5263442993164 M423.7970275878906,118.20556640625 L423.77728271484375,118.53958129882812 L423.718994140625,119.21025848388672 L423.5997314453125,120.23944091796875 L423.4305114746094,121.53321075439453 L423.2416687011719,122.98312377929688 L423.08819580078125,124.43505096435547 L423.0172119140625,125.74124145507812 L423.0936279296875,126.65538787841797 L423.33697509765625,126.9924087524414 L423.7489929199219,126.6869888305664 L424.1697082519531,126.0808334350586 L424.48223876953125,125.50487518310547 M424.33013916015625,111.05534362792969 L424.3077392578125,111.02363586425781 L424.3129577636719,110.99852752685547 L424.33984375,110.98651123046875 L424.3824157714844,110.99408721923828 M434.03387451171875,116.83577728271484 L433.8331604003906,116.79975891113281 L433.32452392578125,116.75656127929688 L432.4458312988281,116.75068664550781 L431.30535888671875,116.84700012207031 L430.13702392578125,117.09768676757812 L429.25811767578125,117.55883026123047 L428.8907470703125,118.24170684814453 L429.14398193359375,119.12126159667969 L429.9882507324219,120.15006256103516 L431.29278564453125,121.2608642578125 L432.8204345703125,122.37335205078125 L434.31573486328125,123.43324279785156 L435.5096740722656,124.38561248779297 L436.19769287109375,125.18846893310547 L436.26898193359375,125.81659698486328 L435.6945495605469,126.27786254882812 L434.5163269042969,126.58480072021484 L432.880859375,126.77400970458984 L431.00390625,126.88929748535156 L429.19281005859375,126.94649505615234 L427.76263427734375,126.94146728515625 L426.90667724609375,126.8760757446289 L426.56500244140625,126.78398895263672 L426.54595947265625,126.70062255859375 M454.4906921386719,119.38829803466797 L454.3140869140625,119.17668914794922 L453.9770812988281,118.87185668945312 L453.4608154296875,118.587646484375 L452.798095703125,118.5150375366211 L451.999267578125,118.7928695678711 L451.1041259765625,119.48362731933594 L450.20611572265625,120.56420135498047 L449.4146728515625,121.92216491699219 L448.8505859375,123.37669372558594 L448.6304931640625,124.72940826416016 L448.819091796875,125.80525970458984 L449.42779541015625,126.4288101196289 L450.4329833984375,126.5087661743164 L451.729248046875,126.01168823242188 L453.1739807128906,124.9970703125 L454.5940856933594,123.62307739257812 L455.8218688964844,122.11246490478516 L456.73779296875,120.67363739013672 L457.30133056640625,119.49655151367188 L457.5189208984375,118.71082305908203 L457.4468994140625,118.39641571044922 L457.15545654296875,118.59796905517578 L456.74066162109375,119.3096923828125 L456.3368225097656,120.45154571533203 L456.09747314453125,121.86137390136719 L456.13958740234375,123.32591247558594 L456.5386962890625,124.61022186279297 L457.30810546875,125.51982116699219 L458.41265869140625,125.9037094116211 L459.7984619140625,125.68622589111328 L461.376708984375,124.87393188476562 L463.03424072265625,123.57280731201172 L464.6240234375,121.99948120117188 L465.98675537109375,120.437255859375 L466.99627685546875,119.13834381103516 L467.59222412109375,118.30094146728516 L467.790283203125,118.01692199707031 L467.6923828125,118.28667449951172 L467.4049987792969,119.08551788330078 L467.04632568359375,120.31317901611328 L466.7304382324219,121.7785415649414 L466.5599365234375,123.24944305419922 L466.6312561035156,124.47413635253906 L467.00689697265625,125.23841094970703 L467.7039794921875,125.44181823730469 L468.7060852050781,125.06170654296875 L469.931640625,124.15850830078125 L471.260498046875,122.88156127929688 L472.57794189453125,121.46302032470703 L473.7539367675781,120.1224365234375 L474.6994323730469,119.05479431152344 L475.37628173828125,118.40167999267578 L475.75396728515625,118.2426986694336 L475.8460388183594,118.61283874511719 L475.73126220703125,119.51475524902344 L475.5491027832031,120.86186981201172 L475.450439453125,122.45488739013672 L475.5653381347656,124.05487823486328 L475.79998779296875,125.2863540649414 L476.03350830078125,126.00204467773438 M487.0506896972656,120.63880920410156 L486.78668212890625,120.21568298339844 L486.2297668457031,119.65838623046875 L485.3262023925781,119.18382263183594 L484.13861083984375,119.07388305664062 L482.79864501953125,119.40119171142578 L481.52783203125,120.14309692382812 L480.5899963378906,121.173583984375 L480.2109375,122.34890747070312 L480.50006103515625,123.48507690429688 L481.41326904296875,124.36868286132812 L482.79876708984375,124.81155395507812 L484.44183349609375,124.70586395263672 L486.0966796875,124.03340148925781 L487.54779052734375,122.88487243652344 L488.62066650390625,121.42317199707031 L489.19097900390625,119.8338851928711 L489.25128173828125,118.31291198730469 L488.882080078125,117.0213623046875 L488.2069091796875,116.07695770263672 L487.4114685058594,115.56011962890625 L486.68304443359375,115.4559326171875 L486.15570068359375,115.66960144042969 L485.87457275390625,115.98796844482422 L485.78802490234375,116.24047088623047 M497.1690979003906,108.46759796142578 L497.05792236328125,108.8935775756836 L496.8475341796875,109.78917694091797 L496.533203125,111.20393371582031 L496.16668701171875,113.0385971069336 L495.806640625,115.19722747802734 L495.51483154296875,117.52486419677734 L495.3414306640625,119.88359069824219 L495.3187255859375,122.10340118408203 L495.41497802734375,123.98148345947266 L495.5794677734375,125.36348724365234 L495.732177734375,126.18787384033203 L495.8274841308594,126.54347229003906 M490.0899963378906,118.32040405273438 L490.308349609375,118.38932037353516 L490.884033203125,118.5440444946289 L491.9165954589844,118.77545928955078 L493.3978271484375,118.9718017578125 L495.16033935546875,119.00862121582031 L496.96978759765625,118.80813598632812 L498.39825439453125,118.49629974365234 L499.2621154785156,118.2163314819336 M503.1312561035156,109.32559967041016 L503.19720458984375,109.66996002197266 L503.2578125,110.44957733154297 L503.257568359375,111.76268768310547 L503.1495361328125,113.5541763305664 L502.9627990722656,115.69686126708984 L502.75494384765625,117.98501586914062 L502.59033203125,120.1634521484375 L502.5241394042969,122.0181655883789 L502.5801086425781,123.38411712646484 L502.772705078125,124.14163208007812 L503.1271667480469,124.25653839111328 L503.6651306152344,123.76164245605469 L504.4062805175781,122.7638931274414 L505.33636474609375,121.48994445800781 L506.392578125,120.21632385253906 L507.47088623046875,119.15190887451172 L508.45538330078125,118.44764709472656 L509.24609375,118.17009735107422 L509.8004150390625,118.3349380493164 L510.1280517578125,118.95764923095703 L510.2928466796875,120.01823425292969 L510.36932373046875,121.3861083984375 L510.45465087890625,122.86605072021484 L510.65911865234375,124.22262573242188 L511.0973815917969,125.22631072998047 L511.86614990234375,125.71531677246094 L513.0188598632812,125.62539672851562 L514.4757690429688,124.95210266113281 L516.0796508789062,123.77676391601562 L517.6084594726562,122.26654052734375 L518.8449096679688,120.62352752685547 L519.6119384765625,119.0433120727539 L519.8311157226562,117.71660614013672 L519.4820556640625,116.77601623535156 L518.6485595703125,116.31556701660156 L517.4852905273438,116.40372467041016 L516.2208251953125,117.05110931396484 L515.094970703125,118.1938705444336 L514.342041015625,119.69851684570312 L514.128662109375,121.37245178222656 L514.5416259765625,122.9957046508789 L515.5687866210938,124.36738586425781 L517.108154296875,125.31332397460938 L518.988037109375,125.72725677490234 L520.9920654296875,125.55772399902344 L522.9069213867188,124.84261322021484 L524.5567626953125,123.70497131347656 L525.83349609375,122.35142517089844 L526.6898193359375,120.99435424804688 L527.163818359375,119.84873962402344 L527.3385009765625,119.06682586669922 L527.317626953125,118.75732421875 L527.1909790039062,118.98017120361328 L527.035400390625,119.74835968017578 L526.8765869140625,120.94670104980469 L526.7509765625,122.36884307861328 L526.679443359375,123.74809265136719 L526.6619262695312,124.85457611083984 L526.6853637695312,125.52617645263672 L526.7520751953125,125.68365478515625 L526.850341796875,125.28392028808594 L527.0072021484375,124.33966827392578 L527.2468872070312,122.95159149169922 L527.598876953125,121.3187026977539 L528.099853515625,119.656494140625 L528.8037109375,118.15221405029297 L529.7343139648438,116.92830657958984 L530.9481201171875,116.06585693359375 L532.407958984375,115.59555053710938 L534.0134887695312,115.49705505371094 L535.36376953125,115.60552215576172 L536.2374267578125,115.76142120361328 M550.7476806640625,105.0 L550.7002563476562,105.3953857421875 L550.5827026367188,106.23599243164062 L550.3689575195312,107.59393310546875 L550.0516967773438,109.42955017089844 L549.6449584960938,111.69705200195312 L549.1592407226562,114.28805541992188 L548.6715698242188,117.056396484375 L548.2686157226562,119.80687713623047 L548.0535888671875,122.29345703125 L548.1078491210938,124.31001281738281 L548.4819946289062,125.70779418945312 L549.1585083007812,126.39495849609375 L550.1276245117188,126.36669921875 L551.3198852539062,125.67977905273438 L552.6525268554688,124.4616470336914 L554.018798828125,122.92749786376953 L555.3094482421875,121.33064270019531 L556.4218139648438,119.89867401123047 L557.2913208007812,118.78474426269531 L557.8714599609375,118.07221984863281 L558.174072265625,117.80636596679688 L558.241455078125,118.02503204345703 L558.1244506835938,118.74620819091797 L557.8818359375,119.92081451416016 L557.5783081054688,121.37696838378906 L557.2969360351562,122.88861083984375 L557.134765625,124.23614501953125 L557.203369140625,125.1543197631836 L557.54052734375,125.48860931396484 L558.1043701171875,125.2069091796875 L558.667236328125,124.63738250732422 L559.0692138671875,124.09768676757812 M560.3150634765625,110.0054931640625 L560.4439697265625,109.86646270751953 L560.617431640625,109.72149658203125 L560.7811279296875,109.61612701416016 M564.0259399414062,117.57194519042969 L563.9308471679688,118.25798034667969 L563.7423095703125,119.38277435302734 L563.4705810546875,120.79818725585938 L563.1845092773438,122.18562316894531 L562.977783203125,123.39569091796875 L562.9378662109375,124.30094146728516 L563.1328125,124.82940673828125 L563.6011962890625,124.8976058959961 L564.3450317382812,124.47156524658203 L565.3345336914062,123.59638214111328 L566.4953002929688,122.40714263916016 L567.7376708984375,121.11640167236328 L568.947021484375,119.92979431152344 L570.03125,119.0001449584961 L570.935302734375,118.4172592163086 L571.63134765625,118.21941375732422 L572.1049194335938,118.42853546142578 L572.4102783203125,119.07367706298828 L572.5804443359375,120.09934997558594 L572.6681518554688,121.3745346069336 L572.7582397460938,122.71489715576172 L572.94140625,123.91230773925781 L573.3112182617188,124.80248260498047 L573.9832763671875,125.30201721191406 L575.0076904296875,125.34889221191406 L576.3521728515625,124.92850494384766 L577.895263671875,124.05754852294922 L579.462890625,122.80880737304688 L580.8447265625,121.30647277832031 L581.8914794921875,119.73970031738281 L582.5374145507812,118.28922271728516 L582.763916015625,117.12236022949219 L582.5811157226562,116.36450958251953 L582.0568237304688,116.12203979492188 L581.2567138671875,116.43659973144531 L580.3253173828125,117.3097152709961 L579.4776611328125,118.64079284667969 L578.938232421875,120.24630737304688 L578.8968505859375,121.90138244628906 L579.5993041992188,123.36663818359375 L581.08154296875,124.44078826904297 L583.2060546875,125.03338623046875 L585.233642578125,125.23774719238281 L586.6527099609375,125.2214584350586 M600.8968505859375,117.02383422851562 L600.5499267578125,116.8589859008789 L599.8914184570312,116.74878692626953 L598.918701171875,116.88096618652344 L597.7559814453125,117.44210052490234 L596.5364990234375,118.45751953125 L595.4702758789062,119.83158874511719 L594.7532958984375,121.37118530273438 L594.5477905273438,122.8668212890625 L594.9327392578125,124.10762023925781 L595.8817749023438,124.9146957397461 L597.2857666015625,125.17469024658203 L598.9866943359375,124.84784698486328 L600.7522583007812,123.97955322265625 L602.3223876953125,122.70081329345703 L603.4718017578125,121.19547271728516 L604.03955078125,119.66854095458984 L603.99609375,118.30526733398438 L603.433837890625,117.24645233154297 L602.4965209960938,116.58639526367188 L601.4114990234375,116.3936767578125 L600.417724609375,116.646728515625 L599.7062377929688,117.2403793334961 L599.3330078125,117.8724365234375 L599.2265625,118.32862091064453 M615.36328125,110.60127258300781 L615.3197021484375,109.91326141357422 L615.174072265625,108.93793487548828 L614.859375,107.936279296875 L614.3419189453125,107.31138610839844 L613.6546630859375,107.21111297607422 L612.853515625,107.71178436279297 L612.01611328125,108.81116485595703 L611.2569580078125,110.5067138671875 L610.6568603515625,112.7255859375 L610.259765625,115.34432983398438 L610.0936279296875,118.19286346435547 L610.1114501953125,121.07206726074219 L610.2470703125,123.79510498046875 L610.4407348632812,126.19157409667969 L610.652099609375,128.15472412109375 L610.817626953125,129.51210021972656 L610.914306640625,130.1437225341797 L610.91259765625,130.03724670410156 L610.852294921875,129.5524139404297 L610.7772216796875,129.03575134277344 M606.7947998046875,119.55545043945312 L607.0413208007812,119.44831085205078 L607.65625,119.3354721069336 L608.847412109375,119.26724243164062 L610.6087646484375,119.2819595336914 L612.779052734375,119.3280029296875 L614.7083129882812,119.36616516113281 L615.9962158203125,119.37799072265625 M633.2645874023438,109.7890396118164 L633.2183837890625,110.33222961425781 L633.0850830078125,111.4106216430664 L632.8239135742188,113.04349517822266 L632.4288940429688,115.07845306396484 L631.938232421875,117.39532470703125 L631.4119873046875,119.83472442626953 L630.9493408203125,122.2423324584961 L630.6241455078125,124.40245056152344 L630.4671630859375,126.09054565429688 L630.456787109375,127.16199493408203 L630.5184326171875,127.6707992553711 L630.5775756835938,127.79956817626953 M627.14599609375,119.09793090820312 L627.4640502929688,119.0797119140625 L628.2908935546875,119.04154205322266 L629.7694091796875,118.98151397705078 L631.8602905273438,118.89788818359375 L634.3587036132812,118.76934814453125 L637.0083618164062,118.57878112792969 L639.5586547851562,118.29781341552734 L641.793701171875,117.89895629882812 L643.5364990234375,117.38603973388672 L644.6639404296875,116.79483795166016 L645.0958862304688,116.1946792602539 L644.8204345703125,115.70091247558594 L643.8958740234375,115.4388656616211 L642.4537353515625,115.52780151367188 L640.708251953125,116.0389404296875 L638.9215087890625,116.96638488769531 L637.344482421875,118.22991943359375 L636.1712036132812,119.69902801513672 L635.536376953125,121.22081756591797 L635.5762939453125,122.64568328857422 L636.3031005859375,123.83020782470703 L637.593994140625,124.675048828125 L638.9072265625,125.15657806396484 L639.8516235351562,125.35013580322266 M650.156005859375,117.38717651367188 L650.0201416015625,117.7492904663086 L649.7553100585938,118.48584747314453 L649.3413696289062,119.60758209228516 L648.811767578125,120.97367095947266 L648.212646484375,122.42890930175781 L647.6177978515625,123.82344818115234 L647.0950317382812,124.96575927734375 L646.707275390625,125.69940948486328 L646.457763671875,125.9376449584961 L646.3281860351562,125.83919525146484 L646.27978515625,125.61579895019531 M647.03271484375,119.73333740234375 L647.11328125,119.78946685791016 L647.328125,119.99588775634766 L647.74560546875,120.43745422363281 L648.390625,121.14479064941406 L649.2633056640625,122.07862091064453 L650.3408203125,123.14781188964844 L651.5952758789062,124.208984375 L652.935546875,125.10215759277344 L654.2510986328125,125.70486450195312 L655.26904296875,126.0035171508789 L655.8746337890625,126.0814437866211 M659.5494384765625,110.43399047851562 L659.52001953125,110.42674255371094 L659.4594116210938,110.66851043701172 L659.3404541015625,111.36638641357422 L659.1341552734375,112.64637756347656 L658.824462890625,114.43995666503906 L658.4359130859375,116.59540557861328 L658.0463256835938,118.92267608642578 L657.77001953125,121.24320220947266 L657.677734375,123.35356140136719 L657.7705688476562,125.0674057006836 L657.941162109375,126.19584655761719 L658.08837890625,126.75848388671875 M655.4356079101562,118.23027801513672 L655.9410400390625,118.14213562011719 L657.1627197265625,118.0221939086914 L659.2242431640625,117.9187240600586 L661.9686279296875,117.89511108398438 L664.9925537109375,117.97227478027344 L667.850830078125,118.10354614257812 L669.9605712890625,118.22676086425781 L671.1566162109375,118.30382537841797 " fill="none" stroke="black" stroke-linecap="round" stroke-width="2" /></svg>