<?xml version="1.0" encoding="utf-8" ?>
<svg baseProfile="full" height="100%" version="1.1" viewBox="0,0,1000,300" width="100%" xmlns="http://www.w3.org/2000/svg" xmlns:ev="http://www.w3.org/2001/xml-events" xmlns:xlink="http://www.w3.org/1999/xlink"><defs /><rect fill="white" height="300" width="1000" x="0" y="0" /><path d="M0,0 M374.9361572265625,50.48728942871094 L374.8569641113281,51.199127197265625 L374.70526123046875,52.51123046875 L374.4693603515625,54.39491271972656 L374.18218994140625,56.63338851928711 L373.87969970703125,59.1172981262207 L373.6029357910156,61.725257873535156 L373.40106201171875,64.34783172607422 L373.31378173828125,66.84036254882812 L373.3375244140625,69.01349639892578 L373.46142578125,70.71721649169922 L373.609375,71.81303405761719 L373.71966552734375,72.34986877441406 M373.1967468261719,47.202293395996094 L373.2169494628906,47.34938430786133 L373.32891845703125,47.73712158203125 L373.6072998046875,48.431373596191406 L374.1119384765625,49.40058898925781 L374.83355712890625,50.50828170776367 L375.7455139160156,51.62793731689453 L376.79034423828125,52.631038665771484 L377.9012451171875,53.42369842529297 L379.0439453125,53.93217849731445 L380.20135498046875,54.09950256347656 L381.3420715332031,53.87189483642578 L382.4508972167969,53.26294708251953 L383.4903869628906,52.30626678466797 L384.4186706542969,51.085025787353516 L385.2193298339844,49.7135124206543 L385.887451171875,48.331336975097656 L386.42010498046875,47.07978820800781 L386.8193664550781,46.068748474121094 L387.0923767089844,45.36039733886719 L387.24853515625,45.0 L387.31378173828125,45.03936004638672 L387.31298828125,45.537452697753906 L387.25457763671875,46.54996109008789 L387.1271667480469,48.06307601928711 L386.9369812011719,50.0118522644043 L386.6904296875,52.292850494384766 L386.41448974609375,54.8031005859375 L386.15008544921875,57.43907928466797 L385.9300231933594,60.0953254699707 L385.77410888671875,62.642784118652344 L385.7029113769531,64.96083068847656 L385.73388671875,66.93949890136719 L385.86419677734375,68.50166320800781 L386.08612060546875,69.62203979492188 L386.31134033203125,70.29271697998047 L386.475830078125,70.59991455078125 M396.7508239746094,60.03492736816406 L396.7040100097656,59.594871520996094 L396.4959716796875,58.966373443603516 L396.01922607421875,58.338951110839844 L395.2113952636719,58.002967834472656 L394.1080322265625,58.10122299194336 L392.8279724121094,58.699581146240234 L391.5299072265625,59.774139404296875 L390.36932373046875,61.26597595214844 L389.4643249511719,63.0476188659668 L388.8795166015625,64.9405288696289 L388.6358642578125,66.754638671875 L388.7451171875,68.30033874511719 L389.19439697265625,69.42256164550781 L389.94573974609375,70.0113754272461 L390.9423828125,69.99642944335938 L392.0835876464844,69.35516357421875 L393.2509765625,68.12801361083984 L394.3489074707031,66.45195007324219 L395.3050842285156,64.53691864013672 L396.062744140625,62.639835357666016 L396.61883544921875,60.996177673339844 L396.978759765625,59.758724212646484 L397.16290283203125,59.015777587890625 L397.2044372558594,58.804622650146484 L397.13983154296875,59.13224792480469 L396.97735595703125,59.99186325073242 L396.75323486328125,61.32936477661133 L396.51788330078125,63.00355529785156 L396.3294372558594,64.84675598144531 L396.2479553222656,66.65091705322266 L396.32806396484375,68.24300384521484 L396.61102294921875,69.41382598876953 L397.0993347167969,70.02852630615234 L397.75616455078125,70.04547119140625 L398.36669921875,69.73587799072266 L398.78680419921875,69.37115478515625 M403.1240234375,48.72748565673828 L403.23663330078125,48.46343231201172 L403.3856201171875,48.288055419921875 L403.53656005859375,48.46895980834961 L403.6357116699219,49.28394317626953 L403.6865234375,50.77106475830078 L403.6780700683594,52.841453552246094 L403.6171875,55.33018493652344 L403.5002746582031,58.07268524169922 L403.345458984375,60.87239456176758 L403.1841735839844,63.532470703125 L403.0418701171875,65.87239837646484 L402.95501708984375,67.67384338378906 L402.9573669433594,68.8016128540039 L403.0645751953125,69.23238372802734 L403.21051025390625,69.20711517333984 L403.3406677246094,69.00439453125 M409.79119873046875,58.7515754699707 L409.6597595214844,58.595123291015625 L409.2955627441406,58.50631332397461 L408.6026306152344,58.64409255981445 L407.58349609375,59.14054489135742 L406.36578369140625,59.95573043823242 L405.12823486328125,60.97230529785156 L404.10028076171875,62.05399703979492 L403.4705810546875,63.10882568359375 L403.3359680175781,64.07815551757812 L403.7142639160156,64.92391204833984 L404.56475830078125,65.62686157226562 L405.77215576171875,66.14629364013672 L407.2167053222656,66.4533462524414 L408.7522277832031,66.52783966064453 L410.23651123046875,66.37332153320312 L411.5590515136719,65.9990005493164 L412.66534423828125,65.4167251586914 L413.5460205078125,64.61534881591797 L414.23907470703125,63.61381149291992 L414.7804260253906,62.49042892456055 L415.1976318359375,61.39487838745117 L415.5055847167969,60.48011779785156 L415.6984558105469,59.87610626220703 L415.77899169921875,59.647274017333984 L415.77789306640625,59.82423400878906 L415.7262268066406,60.4227409362793 L415.6551513671875,61.43556594848633 L415.6028137207031,62.77283477783203 L415.580078125,64.30293273925781 L415.6055603027344,65.85179901123047 L415.7015686035156,67.24729919433594 L415.862548828125,68.3537826538086 L416.0599365234375,69.11014556884766 L416.2347717285156,69.51773834228516 L416.3445739746094,69.67218017578125 M416.5429992675781,50.555870056152344 L416.54779052734375,50.51399230957031 L416.5758056640625,50.50883865356445 L416.614990234375,50.536556243896484 L416.6531982421875,50.59328079223633 M421.05804443359375,59.42935562133789 L421.08526611328125,59.40596008300781 L421.1096496582031,59.473697662353516 L421.10662841796875,59.758052825927734 L421.0487060546875,60.37725067138672 L420.9388732910156,61.3836669921875 L420.7951354980469,62.730777740478516 L420.6456298828125,64.2763900756836 L420.52996826171875,65.8399429321289 L420.4712829589844,67.23009490966797 L420.47613525390625,68.29739379882812 L420.5401306152344,68.95349884033203 L420.6546630859375,69.14616394042969 L420.81475830078125,68.83605194091797 L421.0466613769531,68.02039337158203 L421.38262939453125,66.74812316894531 L421.85870361328125,65.14353942871094 L422.50341796875,63.382537841796875 L423.3250732421875,61.65687561035156 L424.29913330078125,60.12499237060547 L425.37353515625,58.90545654296875 L426.46673583984375,58.09097671508789 L427.4821472167969,57.7402229309082 L428.3412170410156,57.899024963378906 L428.9957275390625,58.574954986572266 L429.4266052246094,59.728233337402344 L429.63800048828125,61.249080657958984 L429.65570068359375,62.98527526855469 L429.5451965332031,64.7542495727539 L429.39898681640625,66.3732681274414 L429.31085205078125,67.68997192382812 L429.296875,68.56507873535156 L429.3306579589844,69.00920867919922 M438.88909912109375,61.53017807006836 L438.8365783691406,61.04096984863281 L438.60662841796875,60.35374450683594 L438.0771789550781,59.692779541015625 L437.1845397949219,59.389427185058594 L435.9884948730469,59.58324432373047 L434.639404296875,60.28594207763672 L433.3878479003906,61.3839111328125 L432.4543151855469,62.70199966430664 L432.0011901855469,64.03773498535156 L432.10394287109375,65.20719146728516 L432.7484130859375,66.09295654296875 L433.8227233886719,66.6067886352539 L435.2099304199219,66.7200698852539 L436.72894287109375,66.40957641601562 L438.19842529296875,65.71025848388672 L439.4698486328125,64.7121353149414 L440.4283447265625,63.57090759277344 L441.0130615234375,62.44915771484375 L441.2781982421875,61.50242614746094 L441.307373046875,60.814781188964844 L441.19598388671875,60.43034744262695 L441.03765869140625,60.37692642211914 L440.88812255859375,60.6902961730957 L440.79449462890625,61.40593719482422 L440.82843017578125,62.53432846069336 L441.03948974609375,64.04939270019531 L441.4188232421875,65.89126586914062 L441.91552734375,67.99101257324219 L442.4309997558594,70.27399444580078 L442.85198974609375,72.65425109863281 L443.0819091796875,75.01641845703125 L443.0445251464844,77.23377990722656 L442.6810302734375,79.18438720703125 L441.97235107421875,80.77429962158203 L440.9288330078125,81.95240783691406 L439.59368896484375,82.69070434570312 L438.0575256347656,82.98478698730469 L436.43878173828125,82.84748840332031 L434.86944580078125,82.31733703613281 L433.4844055175781,81.44803619384766 L432.406494140625,80.31291198730469 L431.7246398925781,78.9726791381836 L431.49664306640625,77.50023651123047 L431.806640625,75.93505096435547 L432.63385009765625,74.36536407470703 L433.87103271484375,72.89608764648438 L435.06622314453125,71.78707885742188 L435.9078063964844,71.13284301757812 M455.41009521484375,60.498138427734375 L455.475830078125,60.900146484375 L455.5957946777344,61.65816879272461 L455.7564697265625,62.761531829833984 L455.9018249511719,64.07308959960938 L455.9942932128906,65.49180603027344 L455.9930419921875,66.8943099975586 L455.90252685546875,68.17808532714844 L455.7610168457031,69.23931884765625 L455.60784912109375,69.97140502929688 L455.47076416015625,70.27693939208984 L455.38458251953125,70.08280181884766 L455.3648681640625,69.3548812866211 L455.4598083496094,68.13994598388672 L455.7218933105469,66.57086181640625 L456.1802062988281,64.81763458251953 L456.8457336425781,63.04747772216797 L457.6970520019531,61.4126091003418 L458.6601257324219,60.027164459228516 L459.6546630859375,59.00071334838867 L460.6090087890625,58.43545150756836 L461.4531555175781,58.40253448486328 L462.1387634277344,58.92006301879883 L462.6415710449219,59.97051239013672 L462.93731689453125,61.457191467285156 L463.0295715332031,63.22755432128906 L462.9721984863281,65.0638198852539 L462.8321838378906,66.7361831665039 L462.6772766113281,68.05198669433594 L462.5765075683594,68.89881134033203 L462.5608825683594,69.2131576538086 L462.6517028808594,68.97771453857422 L462.8834228515625,68.1871109008789 L463.2955322265625,66.90531158447266 L463.90948486328125,65.2749252319336 L464.7345275878906,63.50938415527344 L465.7311706542969,61.82663345336914 L466.8179931640625,60.408687591552734 L467.89093017578125,59.364830017089844 L468.85650634765625,58.76392364501953 L469.6296081542969,58.63957214355469 L470.17718505859375,59.00455093383789 L470.50909423828125,59.836917877197266 L470.65472412109375,61.077919006347656 L470.6689453125,62.62007522583008 L470.623046875,64.2759780883789 L470.5688171386719,65.82990264892578 L470.5360107421875,66.97710418701172 L470.53021240234375,67.61949157714844 M474.6978759765625,59.52400207519531 L474.73309326171875,59.792198181152344 L474.80963134765625,60.336952209472656 L474.9451904296875,61.170738220214844 L475.14910888671875,62.19970703125 L475.4383850097656,63.318824768066406 L475.82513427734375,64.40930938720703 L476.32440185546875,65.37783813476562 L476.92864990234375,66.12135314941406 L477.63671875,66.5479507446289 L478.41741943359375,66.57379913330078 L479.22943115234375,66.1534652709961 L480.0321044921875,65.30331420898438 L480.7844543457031,64.14326477050781 L481.42718505859375,62.85822296142578 L481.93658447265625,61.66252136230469 L482.2786865234375,60.715545654296875 L482.44952392578125,60.12275695800781 L482.4715576171875,59.92322540283203 L482.3937072753906,60.15974426269531 L482.25018310546875,60.8702392578125 L482.0910339355469,62.07307052612305 L481.94830322265625,63.728126525878906 L481.8333435058594,65.7786636352539 L481.707763671875,68.13066864013672 L481.53369140625,70.69398498535156 L481.2525939941406,73.34980773925781 L480.8175048828125,75.95491027832031 L480.2152099609375,78.34130859375 L479.42138671875,80.35028839111328 L478.42138671875,81.86366271972656 L477.2450866699219,82.82994079589844 L475.91876220703125,83.16543579101562 L474.52606201171875,82.88111877441406 L473.19317626953125,82.08146667480469 L472.16845703125,81.17974853515625 L471.558349609375,80.49282836914062 M496.829833984375,57.23191833496094 L496.8199157714844,57.127479553222656 L496.8052673339844,57.005279541015625 L496.78924560546875,56.9555778503418 L496.7724609375,57.116981506347656 L496.7463073730469,57.59661865234375 L496.6776123046875,58.47246551513672 L496.5638732910156,59.734825134277344 L496.434814453125,61.325767517089844 L496.34771728515625,63.108341217041016 L496.38800048828125,64.91046905517578 L496.61962890625,66.54411315917969 L497.04986572265625,67.84105682373047 L497.6527099609375,68.64276885986328 L498.38092041015625,68.86425018310547 L499.17041015625,68.46449279785156 L499.9678955078125,67.47747039794922 L500.714599609375,66.01235961914062 L501.35498046875,64.2569351196289 L501.8367919921875,62.43048858642578 L502.1387939453125,60.77393341064453 L502.2691345214844,59.464393615722656 L502.245849609375,58.602317810058594 L502.1068115234375,58.24497985839844 L501.911376953125,58.419952392578125 L501.70635986328125,59.126800537109375 L501.568603515625,60.330074310302734 L501.5731201171875,61.90313720703125 L501.7828369140625,63.64159393310547 L502.2483215332031,65.34103393554688 L502.98223876953125,66.80860137939453 L503.94140625,67.89718627929688 L505.0655517578125,68.51292419433594 L506.2609558105469,68.5888900756836 L507.438720703125,68.09390258789062 L508.5135498046875,67.07727813720703 L509.3911437988281,65.63096618652344 L510.0003356933594,63.899715423583984 L510.30389404296875,62.05562210083008 L510.3022155761719,60.252685546875 L510.04156494140625,58.625057220458984 L509.61859130859375,57.297149658203125 L509.1319580078125,56.33464813232422 L508.7333984375,55.764827728271484 L508.49188232421875,55.51660919189453 M519.6788940429688,60.99894332885742 L519.4918823242188,60.42535400390625 L519.101806640625,59.57575225830078 L518.4859619140625,58.66221618652344 L517.6915283203125,58.03535461425781 L516.7567138671875,57.845069885253906 L515.75732421875,58.16615295410156 L514.7674560546875,58.97861862182617 L513.86865234375,60.20842742919922 L513.1679077148438,61.71454620361328 L512.7577514648438,63.31459045410156 L512.6710205078125,64.80827331542969 L512.9117431640625,66.03284454345703 L513.4368286132812,66.87037658691406 L514.1820068359375,67.23783874511719 L515.1016845703125,67.10173797607422 L516.1370849609375,66.4686508178711 L517.20166015625,65.40977478027344 L518.2001953125,64.07300567626953 L519.0247802734375,62.661468505859375 L519.6082153320312,61.38163375854492 L519.9475708007812,60.38410186767578 L520.0767211914062,59.75098419189453 L520.049072265625,59.525299072265625 L519.92236328125,59.72359085083008 L519.73828125,60.3686637878418 L519.5484619140625,61.42536163330078 L519.4072265625,62.77081298828125 L519.386962890625,64.23119354248047 L519.5289306640625,65.60506439208984 L519.845703125,66.73014831542969 L520.1958618164062,67.47893524169922 L520.4668579101562,67.86213684082031 M525.1409301757812,58.219749450683594 L525.1687622070312,58.25483322143555 L525.1856079101562,58.49241256713867 L525.1883544921875,59.068843841552734 L525.189208984375,60.041751861572266 L525.2384033203125,61.31492233276367 L525.38720703125,62.73013687133789 L525.6715698242188,64.1133041381836 L526.108642578125,65.3149185180664 L526.7293701171875,66.21550750732422 L527.5641479492188,66.70912170410156 L528.619140625,66.70897674560547 L529.8595581054688,66.20568084716797 L531.1784057617188,65.27542114257812 L532.4471435546875,64.05447387695312 L533.526123046875,62.723045349121094 L534.3330078125,61.452571868896484 L534.8465576171875,60.3793830871582 L535.0948486328125,59.6302375793457 L535.11767578125,59.29716110229492 L534.9766235351562,59.43312454223633 L534.7063598632812,60.08162307739258 L534.3737182617188,61.23452377319336 L534.0625,62.84378433227539 L533.8504028320312,64.84685516357422 L533.7874145507812,67.16271209716797 L533.877197265625,69.69328308105469 L534.0712890625,72.35317993164062 L534.2971801757812,75.01655578613281 L534.477294921875,77.54580688476562 L534.5423583984375,79.7965316772461 L534.451416015625,81.66287231445312 L534.1738891601562,83.06903076171875 L533.6810302734375,83.99382781982422 L532.935302734375,84.43931579589844 L531.93017578125,84.4410400390625 L530.6596069335938,84.01292419433594 L529.224609375,83.2496337890625 L527.7830200195312,82.28858947753906 L526.65380859375,81.44094848632812 L525.9747924804688,80.887451171875 M558.8905029296875,63.03480529785156 L558.75146484375,62.534847259521484 L558.4176635742188,61.746986389160156 L557.823486328125,60.79623794555664 L556.9442749023438,59.94066619873047 L555.75634765625,59.29645919799805 L554.286865234375,58.98222351074219 L552.6295166015625,59.07365798950195 L550.9305419921875,59.621681213378906 L549.3889770507812,60.5947265625 L548.1934814453125,61.90805435180664 L547.4514770507812,63.400020599365234 L547.201904296875,64.91260528564453 L547.43310546875,66.2919692993164 L548.1007080078125,67.38848114013672 L549.1382446289062,68.06470489501953 L550.4695434570312,68.21676635742188 L551.994140625,67.7515640258789 L553.610595703125,66.63540649414062 L555.2379760742188,64.89423370361328 L556.812744140625,62.6341667175293 L558.2753295898438,60.02201843261719 L559.5797729492188,57.25864791870117 L560.67724609375,54.56772994995117 L561.524169921875,52.17646789550781 L562.1074829101562,50.2495002746582 L562.4332885742188,48.90387725830078 L562.5206298828125,48.191165924072266 L562.4149169921875,48.11174011230469 L562.1729736328125,48.684818267822266 L561.844482421875,49.935943603515625 L561.4973754882812,51.82392883300781 L561.1779174804688,54.235748291015625 L560.9298095703125,56.974273681640625 L560.8046875,59.798606872558594 L560.8453369140625,62.4808349609375 L561.1326293945312,64.81929016113281 L561.7105712890625,66.66315460205078 L562.5451049804688,67.9455337524414 L563.3519287109375,68.67166137695312 L563.9285888671875,68.97679138183594 M570.3738403320312,60.60067367553711 L570.140869140625,60.049095153808594 L569.676025390625,59.30532455444336 L568.957275390625,58.6050910949707 L568.05029296875,58.27788162231445 L567.0186767578125,58.41765594482422 L565.9609375,59.051509857177734 L564.9959716796875,60.102657318115234 L564.254638671875,61.48546600341797 L563.8588256835938,63.03590393066406 L563.9033203125,64.55659484863281 L564.4179077148438,65.86396026611328 L565.3614501953125,66.8017578125 L566.6320190429688,67.25696563720703 L568.0731811523438,67.1771469116211 L569.4954223632812,66.54729461669922 L570.7186279296875,65.42510223388672 L571.5928955078125,63.94015884399414 L572.0184936523438,62.27494430541992 L571.9976806640625,60.649497985839844 L571.62841796875,59.26924514770508 L571.0811157226562,58.24913787841797 L570.5767822265625,57.65913391113281 L570.2490234375,57.41606140136719 L570.1080932617188,57.378211975097656 M576.8670654296875,57.28388977050781 L576.6766357421875,56.9012451171875 L576.40185546875,56.442955017089844 L576.0948486328125,56.13249206542969 L575.8216552734375,56.25828552246094 L575.5745849609375,56.91669845581055 L575.342041015625,58.10822296142578 L575.1211547851562,59.72023391723633 L574.960693359375,61.60984802246094 L574.9130249023438,63.557960510253906 L575.0092163085938,65.34132385253906 L575.2730712890625,66.785888671875 L575.6853637695312,67.73968505859375 L576.2296752929688,68.1098403930664 L576.8964233398438,67.86045837402344 L577.668212890625,67.00004577636719 L578.499755859375,65.639404296875 L579.3267211914062,63.98200988769531 L580.056640625,62.27393341064453 L580.6318359375,60.75568389892578 L581.0107421875,59.57987594604492 L581.2042846679688,58.83329772949219 L581.240234375,58.56901168823242 L581.1651611328125,58.809715270996094 L581.0383911132812,59.5823860168457 L580.9378051757812,60.83378601074219 L580.9267578125,62.38740921020508 L581.0902099609375,64.03132629394531 L581.4828491210938,65.5342788696289 L582.124755859375,66.69412994384766 L582.9932861328125,67.39986419677734 L584.0289916992188,67.58207702636719 L585.1297607421875,67.1974105834961 L586.1925659179688,66.28742218017578 L587.1109619140625,64.95095825195312 L587.8016357421875,63.35349655151367 L588.2069702148438,61.68144226074219 L588.3373413085938,60.127437591552734 L588.2469482421875,58.819984436035156 L588.0750732421875,57.92372512817383 L587.92724609375,57.4428596496582 M592.5459594726562,58.07315444946289 L592.5785522460938,58.323707580566406 L592.5794677734375,58.85882568359375 L592.5004272460938,59.723655700683594 L592.3143310546875,60.85564041137695 L592.057861328125,62.15067672729492 L591.797119140625,63.46977615356445 L591.5929565429688,64.67839813232422 L591.4812622070312,65.6527328491211 L591.4699096679688,66.29539489746094 L591.559326171875,66.51681518554688 L591.7623291015625,66.25202941894531 L592.110595703125,65.48201751708984 L592.6280517578125,64.27217102050781 L593.3291625976562,62.77914810180664 L594.19580078125,61.206729888916016 L595.1856079101562,59.74472427368164 L596.2431030273438,58.54379653930664 L597.3169555664062,57.69859313964844 L598.353271484375,57.27417755126953 L599.298828125,57.308841705322266 L600.0853881835938,57.809566497802734 L600.657958984375,58.744590759277344 L600.9954223632812,60.040435791015625 L601.1160278320312,61.623634338378906 L601.0848388671875,63.35622787475586 L600.9879150390625,65.05960845947266 L600.8949584960938,66.38078308105469 L600.838623046875,67.17041015625 M607.275146484375,47.524227142333984 L607.2640380859375,47.585296630859375 L607.2318725585938,47.902957916259766 L607.1539306640625,48.62803649902344 L607.0335693359375,49.84410095214844 L606.8790283203125,51.496192932128906 L606.729736328125,53.5089225769043 L606.6092529296875,55.76640701293945 L606.5399169921875,58.153926849365234 L606.525634765625,60.53331756591797 L606.5730590820312,62.749263763427734 L606.680908203125,64.66134643554688 L606.8364868164062,66.12389373779297 L606.9996337890625,67.0320053100586 L607.13671875,67.37225341796875 L607.2254638671875,67.34490203857422 L607.2628784179688,67.17240905761719 M603.4866943359375,58.31891632080078 L603.595703125,58.249107360839844 L603.9610595703125,58.178585052490234 L604.703125,58.141517639160156 L605.8626098632812,58.17056655883789 L607.3681030273438,58.253746032714844 L609.0810546875,58.35061264038086 L610.8467407226562,58.43344497680664 L612.5270385742188,58.50416564941406 L613.9873657226562,58.56578826904297 L615.1155395507812,58.628562927246094 L615.8221435546875,58.71180725097656 L616.067626953125,58.823795318603516 L615.8626708984375,58.99678039550781 L615.2734375,59.303592681884766 L614.4053955078125,59.803321838378906 L613.3999633789062,60.5284423828125 L612.4190673828125,61.47323226928711 L611.6400146484375,62.587921142578125 L611.1968383789062,63.79015350341797 L611.2001953125,64.99486541748047 L611.6942138671875,66.08740234375 L612.6490478515625,66.94908142089844 L613.9743041992188,67.48646545410156 L615.5404052734375,67.62834930419922 L617.1761474609375,67.34266662597656 L618.7271728515625,66.64408111572266 L620.0521240234375,65.58589935302734 L621.0206298828125,64.26516723632812 L621.5292358398438,62.821136474609375 L621.5323486328125,61.39173126220703 L621.0435180664062,60.108184814453125 L620.1235961914062,59.08721160888672 L618.93359375,58.39584732055664 L617.672119140625,58.04560089111328 L616.659912109375,57.9442253112793 L616.0489501953125,57.967769622802734 M625.404052734375,57.67837905883789 L625.329345703125,57.762184143066406 L625.1839599609375,58.04242706298828 L624.9566650390625,58.61488342285156 L624.6932983398438,59.517147064208984 L624.43798828125,60.69938278198242 L624.2642822265625,62.07631301879883 L624.243408203125,63.53518295288086 L624.4215698242188,64.92835998535156 L624.8060302734375,66.11563110351562 L625.3935546875,66.97908020019531 L626.1434936523438,67.43192291259766 L627.0134887695312,67.420654296875 L627.957763671875,66.93994903564453 L628.90478515625,66.01631927490234 L629.7841796875,64.74855041503906 L630.5126953125,63.29832077026367 L631.0324096679688,61.86371612548828 L631.3374633789062,60.613033294677734 L631.4586181640625,59.67578887939453 L631.4307861328125,59.116661071777344 L631.2908325195312,58.97515106201172 L631.0444946289062,59.26670455932617 L630.706298828125,59.99691390991211 L630.3489990234375,61.113643646240234 L630.081298828125,62.494361877441406 L630.0237426757812,63.96931838989258 L630.2713623046875,65.36772155761719 L630.8629150390625,66.5271987915039 L631.7655029296875,67.32524108886719 L632.9241943359375,67.69573974609375 L634.249755859375,67.59037017822266 L635.6427612304688,67.02058410644531 L636.96923828125,66.03750610351562 L638.1058349609375,64.72159576416016 L638.9400634765625,63.18992614746094 L639.41064453125,61.60017776489258 L639.5239868164062,60.1119270324707 L639.3720703125,58.87439727783203 L639.1284790039062,58.03874206542969 L638.9300537109375,57.60335922241211 M643.5031127929688,59.12348937988281 L643.5322875976562,59.36494445800781 L643.5537109375,59.862064361572266 L643.5380859375,60.639739990234375 L643.4610595703125,61.65250015258789 L643.3243408203125,62.83650207519531 L643.1626586914062,64.11021423339844 L643.0292358398438,65.35755157470703 L642.950439453125,66.47171020507812 L642.939208984375,67.32819366455078 L642.9840698242188,67.83412170410156 L643.0728759765625,67.91720581054688 L643.206787109375,67.55028533935547 L643.41943359375,66.73667907714844 L643.7415771484375,65.54972076416016 L644.2152099609375,64.09687805175781 L644.8662719726562,62.520721435546875 L645.706787109375,60.97360610961914 L646.7052001953125,59.596561431884766 L647.8031005859375,58.49888610839844 L648.9150390625,57.75579833984375 L649.9506225585938,57.41701889038086 L650.8460693359375,57.51046371459961 L651.5556640625,58.02669906616211 L652.059326171875,58.939796447753906 L652.368896484375,60.188411712646484 L652.52392578125,61.67053985595703 L652.58544921875,63.26814651489258 L652.665283203125,64.88970947265625 L652.8348388671875,66.41073608398438 L653.126953125,67.74083709716797 L653.4370727539062,68.69779205322266 L653.6708984375,69.23677825927734 " fill="none" stroke="black" stroke-linecap="round" stroke-width="2" /><path d="M0,0 M448.1424865722656,106.9034423828125 L448.1386413574219,107.62757873535156 L448.0759582519531,108.98828125 L447.9341125488281,111.0077133178711 L447.7366638183594,113.50411224365234 L447.5768127441406,116.36146545410156 L447.5173034667969,119.41243743896484 L447.64361572265625,122.4494857788086 L447.98699951171875,125.19961547851562 L448.5641784667969,127.44178009033203 L449.3567810058594,129.0010223388672 L450.31982421875,129.7808074951172 L451.3949890136719,129.76242065429688 L452.53924560546875,128.9683074951172 L453.696044921875,127.47607421875 L454.8173522949219,125.47061920166016 L455.8133850097656,123.17926025390625 L456.5982666015625,120.88285827636719 L457.1353454589844,118.83602142333984 L457.43353271484375,117.24394989013672 L457.557373046875,116.26354217529297 L457.595947265625,116.00142669677734 L457.6088562011719,116.48946380615234 L457.63946533203125,117.71916198730469 L457.7004089355469,119.5780029296875 L457.8167419433594,121.87760162353516 L458.0442810058594,124.37084197998047 L458.43951416015625,126.7562026977539 L459.0503234863281,128.75074768066406 L459.8898620605469,130.14846801757812 L460.9013977050781,130.82455444335938 L462.0175476074219,130.72906494140625 L463.17559814453125,129.8637237548828 L464.303955078125,128.24441528320312 L465.35760498046875,125.94709777832031 L466.2850341796875,123.12928771972656 L467.0309753417969,120.0067138671875 L467.55908203125,116.8172836303711 L467.8427734375,113.77338409423828 L467.8802795410156,111.02483367919922 L467.7001953125,108.70832824707031 L467.35760498046875,106.94677734375 L466.9479064941406,105.79456329345703 L466.607177734375,105.20056915283203 L466.39642333984375,105.0 M475.5452880859375,120.27349090576172 L475.334716796875,119.66219329833984 L474.8947448730469,118.78717803955078 L474.18731689453125,117.89451599121094 L473.2510070800781,117.37277221679688 L472.16217041015625,117.39561462402344 L471.0006103515625,118.0456771850586 L469.86138916015625,119.29511260986328 L468.8616638183594,121.05496215820312 L468.11456298828125,123.12931060791016 L467.70623779296875,125.25458526611328 L467.70233154296875,127.1607666015625 L468.08367919921875,128.613525390625 L468.7822570800781,129.461181640625 L469.70458984375,129.62075805664062 L470.7646179199219,129.09463500976562 L471.8683166503906,127.93411254882812 L472.94244384765625,126.2679672241211 L473.90728759765625,124.2847671508789 L474.6875,122.22545623779297 L475.2331848144531,120.33419799804688 L475.54693603515625,118.81155395507812 L475.66204833984375,117.76834106445312 L475.64898681640625,117.27119445800781 L475.56475830078125,117.34649658203125 L475.4417724609375,118.0171890258789 L475.3092346191406,119.28988647460938 L475.1944580078125,121.06707763671875 L475.1363220214844,123.1607437133789 L475.1998291015625,125.34929656982422 L475.41839599609375,127.39566802978516 L475.7964782714844,129.11669921875 L476.35491943359375,130.30455017089844 L477.0531005859375,130.8152618408203 L477.833740234375,130.61962890625 L478.50164794921875,130.08216857910156 L478.9370422363281,129.54722595214844 M482.757568359375,108.30355834960938 L482.7780456542969,108.04879760742188 L482.78692626953125,107.8713607788086 L482.77069091796875,108.0419921875 L482.71685791015625,108.86665344238281 L482.63861083984375,110.40885925292969 L482.5450744628906,112.58438110351562 L482.44805908203125,115.19005584716797 L482.3550720214844,118.01663208007812 L482.301025390625,120.8570785522461 L482.3202819824219,123.54122924804688 L482.4327087402344,125.9035415649414 L482.641357421875,127.73746490478516 L482.91375732421875,128.8886260986328 L483.203857421875,129.31597900390625 L483.4393310546875,129.2718505859375 L483.58612060546875,129.04981994628906 M489.4859924316406,109.45065307617188 L489.4814453125,109.483642578125 L489.4580993652344,109.79427337646484 L489.39923095703125,110.59117889404297 L489.2932434082031,112.00260925292969 L489.1477355957031,113.98677062988281 L488.9761962890625,116.4097671508789 L488.79620361328125,119.0768814086914 L488.6169128417969,121.7857666015625 L488.4439392089844,124.32730865478516 L488.2892761230469,126.50057220458984 L488.16217041015625,128.18466186523438 L488.0897216796875,129.26071166992188 L488.0960998535156,129.70492553710938 L488.19793701171875,129.5858154296875 L488.33538818359375,129.2074737548828 L488.4585266113281,128.82888793945312 M493.068359375,121.08443450927734 L493.01287841796875,120.8692398071289 L492.82672119140625,120.66996765136719 L492.444091796875,120.66249084472656 L491.83245849609375,121.03987884521484 L491.0439453125,121.8174057006836 L490.18035888671875,122.91398620605469 L489.3997497558594,124.15960693359375 L488.87127685546875,125.40162658691406 L488.73162841796875,126.49365234375 L489.0384521484375,127.3333740234375 L489.786865234375,127.8643798828125 L490.927490234375,128.0581512451172 L492.37158203125,127.90363311767578 L494.01141357421875,127.42562866210938 L495.7030029296875,126.66216278076172 L497.2867126464844,125.67691802978516 L498.6161804199219,124.55570220947266 L499.62396240234375,123.39008331298828 L500.2825622558594,122.2751235961914 L500.63140869140625,121.3016128540039 L500.7413330078125,120.54342651367188 L500.7039489746094,120.07463836669922 L500.597900390625,119.95257568359375 L500.5008850097656,120.22875213623047 L500.4444274902344,120.92781066894531 L500.43988037109375,122.00222778320312 L500.49407958984375,123.3403549194336 L500.6112365722656,124.79846954345703 L500.7886047363281,126.22139739990234 L501.02587890625,127.50651550292969 L501.32220458984375,128.534912109375 L501.66290283203125,129.206298828125 L502.02618408203125,129.47389221191406 L502.32763671875,129.4626007080078 L502.52001953125,129.3299102783203 M501.0670166015625,110.5066909790039 L501.10650634765625,110.46250915527344 L501.1705627441406,110.43270874023438 L501.25128173828125,110.4351577758789 L501.33990478515625,110.50666046142578 L501.4361572265625,110.6326675415039 L501.5500793457031,110.81768035888672 L501.65643310546875,110.99942779541016 L501.732421875,111.13760375976562 M505.34771728515625,119.01372528076172 L505.3740234375,119.09043884277344 L505.43505859375,119.35684967041016 L505.5284729003906,119.92892456054688 L505.6429443359375,120.8710708618164 L505.7567138671875,122.17461395263672 L505.8502502441406,123.75149536132812 L505.9212951660156,125.4594497680664 L505.98663330078125,127.11626434326172 L506.0567321777344,128.54669189453125 L506.13494873046875,129.6133575439453 L506.2113342285156,130.24220275878906 L506.2741394042969,130.3915252685547 L506.3280944824219,130.04501342773438 L506.4076843261719,129.1953582763672 L506.5628662109375,127.88431549072266 L506.84320068359375,126.22895050048828 L507.296875,124.4062271118164 L507.9436950683594,122.60340118408203 L508.77227783203125,120.99628448486328 L509.743896484375,119.71603393554688 L510.78680419921875,118.84899139404297 L511.8227233886719,118.44868469238281 L512.7825927734375,118.53459167480469 L513.6123046875,119.08766174316406 L514.2803344726562,120.07051849365234 L514.7760620117188,121.40156555175781 L515.0899047851562,122.95587921142578 L515.26611328125,124.59437561035156 L515.3699340820312,126.15060424804688 L515.4771728515625,127.47459411621094 L515.5888671875,128.39276123046875 L515.6887817382812,128.88433837890625 M524.695556640625,122.8119888305664 L524.7181396484375,122.32023620605469 L524.6219482421875,121.57746887207031 L524.28662109375,120.73301696777344 L523.6195068359375,120.05058288574219 L522.6173095703125,119.64525604248047 L521.3709106445312,119.61827087402344 L520.0255737304688,120.02192687988281 L518.760009765625,120.86196899414062 L517.7615966796875,122.04951477050781 L517.1932983398438,123.42276000976562 L517.140869140625,124.78309631347656 L517.6224365234375,125.949951171875 L518.5689697265625,126.77847290039062 L519.8599853515625,127.16665649414062 L521.3377075195312,127.06366729736328 L522.8397216796875,126.47987365722656 L524.2058715820312,125.4873046875 L525.3078002929688,124.2251205444336 L526.0595092773438,122.86787414550781 L526.4486083984375,121.59068298339844 L526.5249633789062,120.53450775146484 L526.3798217773438,119.79517364501953 L526.1165771484375,119.43282318115234 L525.8238525390625,119.49505615234375 L525.5610961914062,120.02706146240234 L525.3869018554688,121.04346466064453 L525.3526000976562,122.52051544189453 L525.4848022460938,124.39595794677734 L525.7811889648438,126.57778930664062 L526.1895141601562,128.9648895263672 L526.617919921875,131.44703674316406 L526.9764404296875,133.8942413330078 L527.1928100585938,136.18637084960938 L527.2019653320312,138.20425415039062 L526.9808349609375,139.85867309570312 L526.5236206054688,141.10006713867188 L525.8492431640625,141.9021759033203 L524.99951171875,142.26132202148438 L524.0404663085938,142.2125244140625 L523.0330810546875,141.79061889648438 L522.0706176757812,141.0642852783203 L521.2349853515625,140.1116943359375 L520.6070556640625,139.02096557617188 L520.2857666015625,137.8215789794922 L520.3270874023438,136.5713348388672 L520.7088623046875,135.32376098632812 L521.1975708007812,134.32765197753906 L521.592529296875,133.70370483398438 M540.5476684570312,118.67366027832031 L540.579345703125,118.02120971679688 L540.5923461914062,116.94852447509766 L540.5396728515625,115.56871795654297 L540.358642578125,114.13579559326172 L540.0211181640625,112.73287963867188 L539.5449829101562,111.46087646484375 L538.9785766601562,110.38462829589844 L538.369140625,109.62773895263672 L537.7708129882812,109.30984497070312 L537.196533203125,109.53296661376953 L536.6640014648438,110.3639144897461 L536.209716796875,111.83416748046875 L535.8828125,113.88876342773438 L535.719482421875,116.42798614501953 L535.75,119.30358123779297 L535.9575805664062,122.35293579101562 L536.32373046875,125.40167236328125 L536.8251953125,128.29603576660156 L537.4244995117188,130.87454223632812 L538.05615234375,132.96194458007812 L538.6349487304688,134.41531372070312 L539.0789794921875,135.19607543945312 L539.3468017578125,135.45921325683594 L539.4632568359375,135.44369506835938 M532.6632080078125,122.81550598144531 L532.8675537109375,122.78163146972656 L533.3870239257812,122.73468780517578 L534.294677734375,122.67070770263672 L535.6597900390625,122.58182525634766 L537.4173583984375,122.4574966430664 L539.4156494140625,122.30176544189453 L541.1263427734375,122.16171264648438 L542.251708984375,122.07125091552734 M549.839599609375,119.35305786132812 L549.6732177734375,119.09477233886719 L549.2850952148438,118.75312805175781 L548.603515625,118.48908996582031 L547.626953125,118.51998901367188 L546.4048461914062,118.94510650634766 L545.0765380859375,119.77300262451172 L543.8456420898438,120.91067504882812 L542.9191284179688,122.21317291259766 L542.4666137695312,123.51715850830078 L542.56494140625,124.65161895751953 L543.1881103515625,125.47574615478516 L544.2479248046875,125.88395690917969 L545.6135864257812,125.82086181640625 L547.1312866210938,125.29122161865234 L548.6468505859375,124.35401153564453 L550.0046997070312,123.12015533447266 L551.0663452148438,121.74541473388672 L551.7542724609375,120.39508056640625 L552.064697265625,119.22532653808594 L552.0626220703125,118.3560791015625 L551.8516235351562,117.86602783203125 L551.53857421875,117.80311584472656 L551.19873046875,118.18730163574219 L550.9019165039062,118.9988784790039 L550.7200927734375,120.15213012695312 L550.7252807617188,121.50138854980469 L550.9490356445312,122.88516235351562 L551.433837890625,124.14071655273438 L552.14306640625,125.14254760742188 L553.0044555664062,125.83361053466797 L553.7645263671875,126.21514129638672 L554.2753295898438,126.36312103271484 M560.7349243164062,117.27794647216797 L560.5205688476562,116.94976806640625 L560.0693969726562,116.56551361083984 L559.3411865234375,116.3066177368164 L558.412841796875,116.38199615478516 L557.423095703125,116.79521179199219 L556.5692138671875,117.48170471191406 L556.0585327148438,118.32568359375 L556.048828125,119.2464370727539 L556.5957641601562,120.1662368774414 L557.6741943359375,121.03944396972656 L559.1636962890625,121.847412109375 L560.887939453125,122.60250091552734 L562.6160888671875,123.30968475341797 L564.114990234375,123.976806640625 L565.1890869140625,124.58553314208984 L565.7119750976562,125.12445068359375 L565.6436157226562,125.58634185791016 L565.0263671875,125.96408081054688 L563.9510498046875,126.25276184082031 L562.5572509765625,126.43719482421875 L561.0457153320312,126.50438690185547 L559.6251220703125,126.42550659179688 L558.5797729492188,126.28095245361328 L557.9945678710938,126.13860321044922 M568.6139526367188,108.40901947021484 L568.666748046875,108.42948913574219 L568.7243041992188,108.67790222167969 L568.748779296875,109.31903076171875 L568.7100219726562,110.45944213867188 L568.6224365234375,112.05194091796875 L568.5393676757812,113.99247741699219 L568.5305786132812,116.1399154663086 L568.6619873046875,118.38117980957031 L568.9476318359375,120.5457534790039 L569.3535766601562,122.46304321289062 L569.7319946289062,123.83810424804688 L569.9893798828125,124.60079193115234 M565.17236328125,118.04318237304688 L565.3538818359375,117.9174575805664 L565.8658447265625,117.72024536132812 L566.8286743164062,117.48280334472656 L568.3262939453125,117.2717056274414 L570.2584228515625,117.12577819824219 L572.4332275390625,117.04069519042969 L574.270263671875,117.00251770019531 L575.45361328125,116.99456787109375 " fill="none" stroke="black" stroke-linecap="round" stroke-width="2" /><path d="M0,0 M458.903564453125,169.43397521972656 L458.8412170410156,170.30067443847656 L458.7928161621094,171.84739685058594 L458.803466796875,174.021728515625 L458.91424560546875,176.53074645996094 L459.1114807128906,179.2298126220703 L459.3589782714844,181.94830322265625 L459.6254577636719,184.5655975341797 L459.88421630859375,186.86244201660156 L460.1086120605469,188.65269470214844 L460.2793884277344,189.8013916015625 L460.3853759765625,190.35926818847656 L460.43218994140625,190.50881958007812 M453.6944885253906,168.39064025878906 L453.7471923828125,168.22540283203125 L454.04876708984375,167.9893035888672 L454.7522277832031,167.723388671875 L455.9574890136719,167.48631286621094 L457.62994384765625,167.2679443359375 L459.6678466796875,167.03761291503906 L461.9427490234375,166.76605224609375 L464.32977294921875,166.43319702148438 L466.6444091796875,166.03848266601562 L468.7137756347656,165.6026611328125 L470.2137451171875,165.23699951171875 L471.05706787109375,165.0 M457.7629089355469,177.5023956298828 L458.1401062011719,177.52236938476562 L458.9266052246094,177.46995544433594 L460.1426696777344,177.29737854003906 L461.727294921875,176.99688720703125 L463.5598449707031,176.65243530273438 L465.463134765625,176.3473663330078 L467.0045471191406,176.14700317382812 L467.9752502441406,176.05201721191406 M476.49676513671875,179.07969665527344 L476.3243103027344,178.80616760253906 L475.9041442871094,178.4359893798828 L475.1561279296875,178.11817932128906 L474.0968933105469,178.0868682861328 L472.8125,178.4691619873047 L471.4660949707031,179.33229064941406 L470.240478515625,180.62533569335938 L469.3074645996094,182.2457733154297 L468.77606201171875,183.9990692138672 L468.71966552734375,185.6691131591797 L469.1344909667969,187.0320281982422 L469.962890625,187.9083251953125 L471.11468505859375,188.164794921875 L472.4720153808594,187.76953125 L473.8761901855469,186.7543182373047 L475.2010803222656,185.24569702148438 L476.313720703125,183.4243927001953 L477.1180114746094,181.51199340820312 L477.5976867675781,179.72659301757812 L477.7885437011719,178.25064086914062 L477.76708984375,177.21517944335938 L477.64337158203125,176.7108612060547 L477.48565673828125,176.78253173828125 L477.3323974609375,177.446533203125 L477.20538330078125,178.6665802001953 L477.1203918457031,180.32508850097656 L477.1063232421875,182.25213623046875 L477.2320251464844,184.26486206054688 L477.5211181640625,186.15835571289062 L477.96484375,187.7710418701172 L478.40185546875,188.89315795898438 L478.7153015136719,189.49815368652344 M487.3597412109375,177.9142608642578 L487.1690368652344,177.68197631835938 L486.7455139160156,177.45924377441406 L486.03741455078125,177.4474639892578 L485.0968017578125,177.88153076171875 L484.03094482421875,178.810791015625 L483.0215759277344,180.1846923828125 L482.25360107421875,181.84078979492188 L481.8849792480469,183.59701538085938 L481.9925231933594,185.25704956054688 L482.59521484375,186.66265869140625 L483.6293029785156,187.6787567138672 L485.03851318359375,188.17308044433594 L486.6961364746094,188.10311889648438 L488.44708251953125,187.53392028808594 L489.8728332519531,186.82232666015625 L490.7703552246094,186.26100158691406 M491.3044738769531,181.75257873535156 L491.4626159667969,181.8549346923828 L491.8093566894531,181.9326629638672 L492.3751220703125,181.8921661376953 L493.13006591796875,181.6241912841797 L494.0100402832031,181.11810302734375 L494.91644287109375,180.3917999267578 L495.7370300292969,179.4971466064453 L496.3638610839844,178.51675415039062 L496.68585205078125,177.5671844482422 L496.6382141113281,176.7799835205078 L496.1865234375,176.3063201904297 L495.36773681640625,176.26092529296875 L494.29766845703125,176.70445251464844 L493.15386962890625,177.62620544433594 L492.1390075683594,178.93614196777344 L491.45513916015625,180.4978790283203 L491.22467041015625,182.15213012695312 L491.4951171875,183.7451629638672 L492.236572265625,185.15773010253906 L493.427978515625,186.25953674316406 L494.97540283203125,186.96060180664062 L496.7357177734375,187.2417755126953 L498.23907470703125,187.2396697998047 L499.2191162109375,187.12124633789062 M507.0342102050781,176.39947509765625 L506.7107849121094,176.14987182617188 L506.042724609375,175.88580322265625 L505.0075988769531,175.76962280273438 L503.7392272949219,175.98062133789062 L502.4329528808594,176.51980590820312 L501.33062744140625,177.3170928955078 L500.6515808105469,178.2581024169922 L500.55255126953125,179.2431640625 L501.11175537109375,180.17481994628906 L502.31353759765625,181.0015869140625 L504.0247802734375,181.7109832763672 L506.02960205078125,182.3435821533203 L508.033935546875,182.9498291015625 L509.7471923828125,183.5576629638672 L510.9609375,184.15823364257812 L511.5839538574219,184.73951721191406 L511.5867919921875,185.27359008789062 L511.01239013671875,185.74917602539062 L509.92254638671875,186.1555633544922 L508.39556884765625,186.48350524902344 L506.60992431640625,186.730712890625 L504.81976318359375,186.91636657714844 L503.4278564453125,187.0363311767578 L502.60888671875,187.10145568847656 M525.0479125976562,176.69822692871094 L525.0824584960938,176.69357299804688 L525.14599609375,176.84695434570312 L525.228515625,177.3054656982422 L525.3161010742188,178.2017822265625 L525.394287109375,179.56080627441406 L525.4815673828125,181.3495635986328 L525.5894775390625,183.46653747558594 L525.7344360351562,185.7994384765625 L525.8973999023438,188.1868896484375 L526.0567016601562,190.43685913085938 L526.184814453125,192.35256958007812 L526.2794189453125,193.7661895751953 L526.3250122070312,194.54949951171875 L526.3026123046875,194.65362548828125 L526.188720703125,194.08351135253906 L525.9837036132812,192.8853759765625 L525.7265014648438,191.17507934570312 L525.4845581054688,189.10971069335938 L525.31201171875,186.83578491210938 L525.2470703125,184.49412536621094 L525.3206787109375,182.19190979003906 L525.5577392578125,180.0107879638672 L525.9869384765625,178.03794860839844 L526.6481323242188,176.37063598632812 L527.551513671875,175.07073974609375 L528.677734375,174.2059783935547 L529.9658813476562,173.80709838867188 L531.3193969726562,173.8871612548828 L532.6106567382812,174.4259490966797 L533.7166137695312,175.3608856201172 L534.5130615234375,176.5743408203125 L534.9086303710938,177.9509735107422 L534.8442993164062,179.3651580810547 L534.3068237304688,180.72314453125 L533.3353271484375,181.9467315673828 L532.0324096679688,182.96104431152344 L530.54638671875,183.69876098632812 L529.0651245117188,184.12351989746094 L527.7492065429688,184.2306671142578 L526.769775390625,184.03326416015625 L526.2285766601562,183.5971221923828 L526.15380859375,183.0116424560547 L526.3443603515625,182.48074340820312 L526.5975952148438,182.1260986328125 M543.4258422851562,176.55807495117188 L543.3767700195312,176.11300659179688 L543.1702880859375,175.46075439453125 L542.7169799804688,174.7786407470703 L541.9739990234375,174.35240173339844 L540.9920654296875,174.3235321044922 L539.8685302734375,174.78982543945312 L538.7411499023438,175.7430877685547 L537.7366943359375,177.11131286621094 L536.9805297851562,178.73361206054688 L536.5779418945312,180.3834686279297 L536.5948486328125,181.84474182128906 L537.0330810546875,182.94430541992188 L537.8494873046875,183.5539093017578 L538.93505859375,183.611328125 L540.1658935546875,183.112548828125 L541.4234619140625,182.10133361816406 L542.5964965820312,180.69190979003906 L543.5918579101562,179.05694580078125 L544.3493041992188,177.4133758544922 L544.84326171875,175.9718017578125 L545.0906982421875,174.8965301513672 L545.1381225585938,174.29257202148438 L545.0411376953125,174.19467163085938 L544.8427734375,174.6085968017578 L544.579345703125,175.52333068847656 L544.3150634765625,176.8485565185547 L544.1158447265625,178.43426513671875 L544.081787109375,180.11343383789062 L544.2686157226562,181.68173217773438 L544.6689453125,182.98548889160156 L545.0996704101562,183.8732452392578 L545.4256591796875,184.3372802734375 M554.40869140625,172.10411071777344 L554.00634765625,171.9088592529297 L553.244140625,171.7405548095703 L552.1311645507812,171.7569580078125 L550.855712890625,172.10850524902344 L549.6173095703125,172.7745819091797 L548.640625,173.66810607910156 L548.12109375,174.663818359375 L548.189453125,175.66912841796875 L548.860107421875,176.6149444580078 L550.0828247070312,177.4655303955078 L551.6904907226562,178.21861267089844 L553.4291381835938,178.88848876953125 L555.0336303710938,179.49429321289062 L556.2474365234375,180.05191040039062 L556.8859252929688,180.56784057617188 L556.8928833007812,181.05386352539062 L556.2819213867188,181.53054809570312 L555.152099609375,182.00160217285156 L553.6810913085938,182.46160888671875 L552.1060791015625,182.85987854003906 L550.6883544921875,183.13307189941406 L549.6414794921875,183.23663330078125 L549.0394287109375,183.220458984375 L548.8028564453125,183.15179443359375 M562.6118774414062,171.7506103515625 L562.1031494140625,171.7509765625 L561.2837524414062,171.87149047851562 L560.2971801757812,172.19781494140625 L559.439697265625,172.7796630859375 L558.8917236328125,173.5787353515625 L558.8050537109375,174.5213165283203 L559.229248046875,175.5358428955078 L560.1470336914062,176.54623413085938 L561.4589233398438,177.5076904296875 L562.9904174804688,178.39002990722656 L564.515625,179.17123413085938 L565.8019409179688,179.83433532714844 L566.6373291015625,180.39027404785156 L566.8810424804688,180.82574462890625 L566.5083618164062,181.16915893554688 L565.5809936523438,181.4375 L564.2411499023438,181.63916015625 L562.6674194335938,181.77392578125 L561.0267944335938,181.8528594970703 L559.4420776367188,181.8506622314453 L558.0177612304688,181.7616424560547 L556.8132934570312,181.5839080810547 L555.9677124023438,181.39109802246094 L555.4999389648438,181.2410125732422 " fill="none" stroke="black" stroke-linecap="round" stroke-width="2" /><path d="M0,0 M399.416015625,228.42037963867188 L399.3897705078125,228.60882568359375 L399.2991943359375,229.1442108154297 L399.0855712890625,230.18319702148438 L398.70599365234375,231.78692626953125 L398.1457214355469,233.9313201904297 L397.4344787597656,236.5338897705078 L396.6336975097656,239.483154296875 L395.7890625,242.63804626464844 L394.9372863769531,245.81484985351562 L394.1309509277344,248.7708282470703 L393.42626953125,251.29583740234375 L392.9198303222656,253.140380859375 L392.6852111816406,254.15496826171875 L392.73016357421875,254.34713745117188 L392.9150695800781,254.0723114013672 L393.108642578125,253.67861938476562 M398.92730712890625,230.8273162841797 L399.1502990722656,230.78964233398438 L399.5263977050781,230.94851684570312 L400.0201416015625,231.50518798828125 L400.5576171875,232.62545776367188 L401.139892578125,234.31375122070312 L401.76080322265625,236.49063110351562 L402.4139099121094,239.00946044921875 L403.0635070800781,241.71055603027344 L403.6369323730469,244.41473388671875 L404.0745849609375,246.94320678710938 L404.360595703125,249.14036560058594 L404.49072265625,250.83116149902344 L404.4896240234375,251.90707397460938 L404.3890075683594,252.359375 L404.2582092285156,252.39230346679688 L404.1485595703125,252.24754333496094 M396.10693359375,242.5187530517578 L396.1123352050781,242.53201293945312 L396.29656982421875,242.56027221679688 L396.78143310546875,242.59324645996094 L397.71923828125,242.5859375 L399.08447265625,242.50326538085938 L400.7505187988281,242.3252716064453 L402.2158508300781,242.12261962890625 L403.1966552734375,241.96548461914062 M409.13580322265625,239.6775665283203 L409.16436767578125,239.98411560058594 L409.2102355957031,240.6201171875 L409.2585144042969,241.6420135498047 L409.2928161621094,242.99713134765625 L409.294189453125,244.61663818359375 L409.26568603515625,246.3556365966797 L409.220703125,248.033447265625 L409.1953125,249.4654083251953 L409.21527099609375,250.48367309570312 L409.2981262207031,250.96435546875 L409.4410095214844,250.84523010253906 L409.659423828125,250.11688232421875 L409.97021484375,248.84530639648438 L410.4251708984375,247.1826629638672 L411.0673522949219,245.31942749023438 L411.9199523925781,243.45875549316406 L412.9822998046875,241.78163146972656 L414.21875,240.43739318847656 L415.533447265625,239.5378875732422 L416.8324279785156,239.1670684814453 L418.010986328125,239.3545379638672 L418.9776611328125,240.07470703125 L419.6805114746094,241.25173950195312 L420.0987243652344,242.77882385253906 L420.2336730957031,244.51492309570312 L420.15692138671875,246.31346130371094 L419.96087646484375,248.01885986328125 L419.7939453125,249.45596313476562 L419.78558349609375,250.4850616455078 L420.0030517578125,251.04542541503906 L420.3122863769531,251.2347869873047 L420.586181640625,251.22000122070312 M431.12335205078125,242.85577392578125 L430.98394775390625,242.49661254882812 L430.6581115722656,241.98336791992188 L430.07696533203125,241.46859741210938 L429.227783203125,241.19808959960938 L428.1412048339844,241.2948455810547 L426.89996337890625,241.83448791503906 L425.61407470703125,242.81121826171875 L424.4278259277344,244.17803955078125 L423.47735595703125,245.813232421875 L422.88104248046875,247.5526123046875 L422.71771240234375,249.19960021972656 L422.9903564453125,250.56515502929688 L423.6439514160156,251.49154663085938 L424.58929443359375,251.85646057128906 L425.7277526855469,251.58534240722656 L426.9716796875,250.65830993652344 L428.2444763183594,249.09483337402344 L429.4766845703125,246.97743225097656 L430.6295166015625,244.45181274414062 L431.67181396484375,241.6944580078125 L432.59521484375,238.90069580078125 L433.3851318359375,236.2576141357422 L434.022705078125,233.93362426757812 L434.5035095214844,232.0718231201172 L434.8479309082031,230.77890014648438 L435.07183837890625,230.12042236328125 L435.1977844238281,230.12167358398438 L435.2197265625,230.7764129638672 L435.1226806640625,232.06715393066406 L434.9148864746094,233.936279296875 L434.63775634765625,236.2676239013672 L434.34466552734375,238.9042510986328 L434.091552734375,241.64208984375 L433.92889404296875,244.28363037109375 L433.87506103515625,246.66566467285156 L433.9642333984375,248.6403350830078 L434.20489501953125,250.09576416015625 L434.5807189941406,251.00328063964844 L434.94903564453125,251.4370880126953 L435.2176513671875,251.56143188476562 M449.26409912109375,228.00119018554688 L449.2497863769531,227.8252410888672 L449.217041015625,227.68959045410156 L449.16021728515625,227.77752685546875 L449.07342529296875,228.29469299316406 L448.9535217285156,229.31199645996094 L448.8017272949219,230.82032775878906 L448.618408203125,232.73709106445312 L448.396240234375,234.9707489013672 L448.1454162597656,237.4041290283203 L447.8773193359375,239.9108123779297 L447.62408447265625,242.3656768798828 L447.421630859375,244.63502502441406 L447.300537109375,246.57174682617188 L447.26336669921875,248.06419372558594 L447.28173828125,249.0097198486328 L447.3155517578125,249.4653778076172 M456.9302062988281,225.0 L456.96014404296875,225.42337036132812 L456.9833679199219,226.23614501953125 L456.95782470703125,227.41043090820312 L456.84326171875,228.81011962890625 L456.647705078125,230.30340576171875 L456.4132995605469,231.74119567871094 L456.2181396484375,232.8483123779297 L456.1038818359375,233.51669311523438 M459.9459228515625,243.58352661132812 L459.7984619140625,244.3075408935547 L459.5651550292969,245.5347900390625 L459.2851257324219,247.14044189453125 L459.0398864746094,248.7943115234375 L458.87774658203125,250.3174285888672 L458.8114318847656,251.55740356445312 L458.8189697265625,252.42271423339844 L458.88018798828125,252.80291748046875 L458.98046875,252.61474609375 L459.12841796875,251.80560302734375 L459.3740234375,250.41490173339844 L459.7593688964844,248.60134887695312 L460.3153076171875,246.59292602539062 L461.0596923828125,244.63389587402344 L461.97601318359375,242.9136199951172 L463.0137634277344,241.5589599609375 L464.1142272949219,240.66085815429688 L465.1937255859375,240.28817749023438 L466.1758117675781,240.47315979003906 L467.0003662109375,241.2065887451172 L467.6146545410156,242.40296936035156 L467.9853515625,243.9215545654297 L468.1169738769531,245.58370971679688 L468.0450134277344,247.19740295410156 L467.8399353027344,248.59384155273438 L467.5874938964844,249.62435913085938 L467.38555908203125,250.16717529296875 L467.31658935546875,250.12388610839844 L467.4715881347656,249.44775390625 L467.9189453125,248.17526245117188 L468.6927490234375,246.47149658203125 L469.7801208496094,244.5689239501953 L471.12030029296875,242.717041015625 L472.5990295410156,241.11318969726562 L474.10137939453125,239.89108276367188 L475.5127868652344,239.1343536376953 L476.7416687011719,238.90707397460938 L477.7296447753906,239.2335205078125 L478.4290771484375,240.0819854736328 L478.81341552734375,241.3617706298828 L478.89764404296875,242.93353271484375 L478.7454528808594,244.63766479492188 L478.4630126953125,246.31881713867188 L478.191650390625,247.8152313232422 L478.03485107421875,248.98419189453125 L478.04241943359375,249.74783325195312 L478.14434814453125,250.13169860839844 L478.2585754394531,250.24990844726562 M493.025634765625,231.60821533203125 L493.0050048828125,231.77818298339844 L492.9786376953125,232.27122497558594 L492.9397277832031,233.23779296875 L492.8763427734375,234.72312927246094 L492.77606201171875,236.6661376953125 L492.6351013183594,238.92860412597656 L492.4701232910156,241.34815979003906 L492.301513671875,243.7315673828125 L492.1497802734375,245.8846435546875 L492.02081298828125,247.63125610351562 L491.931396484375,248.8461151123047 L491.8821105957031,249.4619598388672 L491.88519287109375,249.47991943359375 L491.95489501953125,248.9171905517578 L492.1468505859375,247.8225555419922 L492.50653076171875,246.30335998535156 L493.0845642089844,244.51162719726562 L493.88568115234375,242.6343536376953 L494.875,240.8808135986328 L495.975830078125,239.4364013671875 L497.1136169433594,238.45094299316406 L498.1977844238281,238.0225067138672 L499.15234375,238.18226623535156 L499.9218444824219,238.91146850585938 L500.45867919921875,240.1471710205078 L500.7286071777344,241.76947021484375 L500.74078369140625,243.62332153320312 L500.5627136230469,245.5232696533203 L500.29559326171875,247.26242065429688 L500.0666809082031,248.68109130859375 L499.93548583984375,249.62466430664062 L499.8936462402344,250.10401916503906 M510.99383544921875,242.06796264648438 L511.0151062011719,241.55271911621094 L510.90869140625,240.8149871826172 L510.5357360839844,240.05819702148438 L509.7980041503906,239.59536743164062 L508.7213439941406,239.55393981933594 L507.42236328125,240.00570678710938 L506.0923767089844,240.93716430664062 L504.930908203125,242.29600524902344 L504.10595703125,243.9485321044922 L503.7420654296875,245.69224548339844 L503.8811340332031,247.29693603515625 L504.5081481933594,248.5624542236328 L505.5391845703125,249.33151245117188 L506.85748291015625,249.51791381835938 L508.3177490234375,249.1086883544922 L509.761474609375,248.14852905273438 L511.01690673828125,246.74807739257812 L511.94842529296875,245.07656860351562 L512.4553833007812,243.32394409179688 L512.5174560546875,241.68699645996094 L512.2091064453125,240.33102416992188 L511.67022705078125,239.34388732910156 L511.150390625,238.75975036621094 L510.80047607421875,238.50086975097656 M516.0806274414062,238.32298278808594 L516.1077270507812,238.57273864746094 L516.1449584960938,239.15390014648438 L516.171875,240.14942932128906 L516.1494140625,241.52377319335938 L516.07275390625,243.1791534423828 L515.95166015625,244.9571990966797 L515.8173217773438,246.671142578125 L515.7074584960938,248.147705078125 L515.6454467773438,249.2315673828125 L515.641357421875,249.7938995361328 L515.7125244140625,249.77059936523438 L515.8733520507812,249.14732360839844 L516.1534423828125,247.9769744873047 L516.57568359375,246.40257263183594 L517.1641235351562,244.60723876953125 L517.9356079101562,242.7891845703125 L518.8607177734375,241.1511993408203 L519.8754272460938,239.84437561035156 L520.8870849609375,238.98655700683594 L521.7921142578125,238.6510467529297 L522.5203857421875,238.84878540039062 L523.044677734375,239.54815673828125 L523.358642578125,240.68397521972656 L523.4742431640625,242.13157653808594 L523.401611328125,243.7401123046875 L523.181884765625,245.3167266845703 L522.877685546875,246.67881774902344 L522.5700073242188,247.68955993652344 L522.3424072265625,248.25901794433594 L522.2557373046875,248.33200073242188 L522.3302001953125,247.8959503173828 L522.60009765625,246.9597625732422 L523.08349609375,245.6143341064453 L523.7835693359375,244.01870727539062 L524.7055053710938,242.36447143554688 L525.8142700195312,240.83274841308594 L527.02783203125,239.57667541503906 L528.2679443359375,238.70404052734375 L529.428466796875,238.29742431640625 L530.4171142578125,238.39886474609375 L531.1869506835938,239.0028839111328 L531.7107543945312,240.0436553955078 L531.9842529296875,241.3968963623047 L532.0537109375,242.93931579589844 L531.9757080078125,244.50856018066406 L531.8327026367188,245.9492950439453 L531.7067260742188,247.0128936767578 L531.634521484375,247.62440490722656 M534.940185546875,246.2131805419922 L535.3833618164062,245.9835662841797 L536.1629638671875,245.5291748046875 L537.1985473632812,244.84197998046875 L538.2828369140625,243.98580932617188 L539.2977905273438,243.01454162597656 L540.1323852539062,241.97752380371094 L540.7314453125,240.93760681152344 L541.0362548828125,239.9729461669922 L540.9813232421875,239.17828369140625 L540.5502319335938,238.6680145263672 L539.7822265625,238.52337646484375 L538.7622680664062,238.79893493652344 L537.6307373046875,239.51177978515625 L536.5413818359375,240.64031982421875 L535.636474609375,242.10597229003906 L535.0709838867188,243.80203247070312 L534.9431762695312,245.557373046875 L535.3050537109375,247.19833374023438 L536.1336059570312,248.56698608398438 L537.4100341796875,249.512451171875 L539.0167846679688,249.95681762695312 L540.8096923828125,249.9196319580078 L542.3187866210938,249.6382293701172 L543.2933349609375,249.33853149414062 M544.87548828125,242.79127502441406 L545.2357177734375,242.7957305908203 L545.9862060546875,242.75889587402344 L547.1444702148438,242.65814208984375 L548.6178588867188,242.46258544921875 L550.25390625,242.1922149658203 L551.86572265625,241.877685546875 L553.1119995117188,241.61062622070312 L553.861328125,241.435546875 M562.587646484375,229.90663146972656 L562.6094970703125,230.19940185546875 L562.5989990234375,230.8931884765625 L562.506103515625,232.08021545410156 L562.2767944335938,233.72518920898438 L561.8970947265625,235.728759765625 L561.3958740234375,237.9666748046875 L560.832275390625,240.31298828125 L560.3031005859375,242.60177612304688 L559.8779907226562,244.63314819335938 L559.6060180664062,246.22496032714844 L559.511962890625,247.2511749267578 L559.5930786132812,247.6708526611328 L559.8380126953125,247.5116424560547 L560.2735595703125,246.8199920654297 L560.8922119140625,245.6798095703125 L561.719482421875,244.24203491210938 L562.767333984375,242.68661499023438 L564.0106201171875,241.2081298828125 L565.3909301757812,239.9752960205078 L566.8522338867188,239.11752319335938 L568.29443359375,238.7177734375 L569.63134765625,238.832275390625 L570.7601318359375,239.44400024414062 L571.56787109375,240.486083984375 L571.9558715820312,241.8416748046875 L571.880859375,243.36985778808594 L571.3412475585938,244.91046142578125 L570.3787841796875,246.31480407714844 L569.081298828125,247.45091247558594 L567.5436401367188,248.24085998535156 L565.87939453125,248.6730194091797 L564.238525390625,248.75213623046875 L562.7943115234375,248.53289794921875 L561.6866455078125,248.10263061523438 L561.0108032226562,247.661865234375 L560.70947265625,247.34402465820312 M579.1989135742188,241.81011962890625 L578.9759521484375,241.45816040039062 L578.489013671875,240.9817657470703 L577.6845092773438,240.54898071289062 L576.6072998046875,240.40310668945312 L575.35546875,240.63262939453125 L574.095458984375,241.2861328125 L573.008544921875,242.31219482421875 L572.2691650390625,243.62579345703125 L572.0059814453125,245.08131408691406 L572.2828979492188,246.49514770507812 L573.092529296875,247.6805877685547 L574.3654174804688,248.50982666015625 L575.9678955078125,248.88137817382812 L577.7350463867188,248.7496337890625 L579.4738159179688,248.12759399414062 L580.985107421875,247.07574462890625 L582.0970458984375,245.715576171875 L582.6970825195312,244.22198486328125 L582.762451171875,242.7634735107422 L582.3690795898438,241.5061492919922 L581.6771850585938,240.5686492919922 L580.8839111328125,239.99368286132812 L580.2413330078125,239.72836303710938 L579.857177734375,239.6627197265625 M587.2193603515625,239.72842407226562 L587.0677490234375,239.78289794921875 L586.7930908203125,240.03781127929688 L586.420654296875,240.6305694580078 L586.0335693359375,241.629638671875 L585.7117919921875,242.98306274414062 L585.5403442382812,244.5601806640625 L585.5747680664062,246.1591796875 L585.8526611328125,247.5812530517578 L586.3780517578125,248.64427185058594 L587.13037109375,249.1922149658203 L588.0808715820312,249.1324462890625 L589.1949462890625,248.45947265625 L590.4088745117188,247.23745727539062 L591.6549072265625,245.6191864013672 L592.8383178710938,243.80726623535156 L593.868896484375,242.03883361816406 L594.6848754882812,240.52517700195312 L595.25732421875,239.42596435546875 L595.5843505859375,238.8328857421875 L595.695068359375,238.78843688964844 L595.6245727539062,239.2970733642578 L595.4304809570312,240.35548400878906 L595.17578125,241.85704040527344 L594.959228515625,243.6242218017578 L594.8654174804688,245.41305541992188 L594.93701171875,246.98507690429688 L595.0927734375,248.07997131347656 L595.24755859375,248.67227172851562 M601.2607421875,239.69351196289062 L601.2615966796875,240.01950073242188 L601.2142333984375,240.72384643554688 L601.0714111328125,241.8413543701172 L600.8143310546875,243.2613983154297 L600.47802734375,244.82164001464844 L600.1343994140625,246.32473754882812 L599.8527221679688,247.59803771972656 L599.6812744140625,248.50892639160156 L599.6180419921875,248.9391632080078 L599.6546630859375,248.81759643554688 L599.794921875,248.13645935058594 L600.058837890625,246.9420928955078 L600.485595703125,245.3739471435547 L601.122802734375,243.62252807617188 L601.966552734375,241.8697967529297 L602.9868774414062,240.28509521484375 L604.11279296875,239.0167999267578 L605.2469482421875,238.1644744873047 L606.3146362304688,237.8034210205078 L607.2633056640625,237.9664306640625 L608.0287475585938,238.6244354248047 L608.5711059570312,239.721435546875 L608.8525390625,241.16061401367188 L608.8765869140625,242.8345489501953 L608.7133178710938,244.57748413085938 L608.4740600585938,246.2122344970703 L608.2680053710938,247.43075561523438 L608.1519775390625,248.13502502441406 M618.5086669921875,242.2040252685547 L618.414306640625,241.777099609375 L618.1551513671875,241.15673828125 L617.65087890625,240.51580810546875 L616.8572998046875,240.12518310546875 L615.7846069335938,240.10643005371094 L614.52392578125,240.52645874023438 L613.2258911132812,241.35057067871094 L612.0677490234375,242.5142822265625 L611.21923828125,243.89540100097656 L610.7758178710938,245.32781982421875 L610.7714233398438,246.63856506347656 L611.1978759765625,247.6741485595703 L612.010986328125,248.27346801757812 L613.145751953125,248.31385803222656 L614.5363159179688,247.7227020263672 L616.054931640625,246.48388671875 L617.5865478515625,244.67108154296875 L619.0205688476562,242.4309844970703 L620.26953125,239.9331512451172 L621.281982421875,237.3859100341797 L622.0540771484375,234.99942016601562 L622.5592041015625,232.96766662597656 L622.8389282226562,231.41864013671875 L622.9351806640625,230.41233825683594 L622.9012451171875,229.95150756835938 L622.78369140625,230.05215454101562 L622.623291015625,230.7311248779297 L622.4129638671875,232.0123748779297 L622.1801147460938,233.83241271972656 L621.9293823242188,236.06503295898438 L621.6724853515625,238.54051208496094 L621.4239501953125,241.0913543701172 L621.2202758789062,243.55331420898438 L621.1015625,245.79132080078125 L621.12109375,247.681884765625 L621.3124389648438,249.0872039794922 L621.6624145507812,249.941162109375 L622.115234375,250.25865173339844 L622.52099609375,250.2350311279297 L622.7903442382812,250.08470153808594 " fill="none" stroke="black" stroke-linecap="round" stroke-width="2" /></svg>